<svg width="76" height="75" viewBox="0 0 76 75" fill="none" xmlns="http://www.w3.org/2000/svg">
<path d="M69.29 40.5272H60.563C57.9629 40.5272 55.8563 38.5096 55.8563 36.0194C55.8563 33.5312 57.9629 31.5137 60.5609 31.5117C63.98 31.5117 67.2456 32.3834 70.3516 30.5644C72.9703 29.0314 74.6021 26.2454 74.6021 23.3064C74.6021 18.7172 70.8056 14.98 66.0575 14.8112C66.0948 14.422 66.1176 14.0268 66.1176 13.6296C66.1176 6.65553 60.2147 1 52.9308 1C47.8924 1 43.5154 3.70862 41.2948 7.68616C39.5593 6.34773 37.3553 5.54746 34.9543 5.54746C29.3623 5.54746 24.8319 9.8884 24.8319 15.2421C19.2399 15.2421 14.7074 19.583 14.7074 24.9367C14.7074 27.8618 16.0614 30.483 18.1991 32.2603C17.1333 33.1559 16.4595 34.4705 16.4595 35.936C16.4595 38.6367 18.7464 40.827 21.5663 40.827H22.6984L23.084 40.9283C22.858 41.7385 22.7378 42.5884 22.7378 43.4661C22.7378 45.577 23.4344 47.531 24.6163 49.1336C23.2872 49.6638 22.3542 50.9188 22.3542 52.3823C22.3542 54.3264 24.0005 55.9031 26.0303 55.9031H53.9592C55.7071 55.9031 57.1667 54.7335 57.54 53.1667H69.292C72.4436 53.1667 75.0001 50.7202 75.0001 47.6998V45.9921C74.9981 42.9756 72.4436 40.5272 69.29 40.5272Z" fill="#2F78CD"/>
<path d="M69.29 40.589H60.563C57.9629 40.589 55.8563 38.5715 55.8563 36.0813C55.8563 33.5931 57.9629 31.5755 60.5609 31.5736C63.98 31.5736 67.2456 32.4453 70.3516 30.6263C72.9703 29.0933 74.6021 26.3072 74.6021 23.3683C74.6021 18.7791 70.8056 15.0419 66.0575 14.8731C66.0949 14.4838 66.1177 14.0887 66.1177 13.6915C66.1177 6.71742 60.2147 1.06189 52.9308 1.06189C47.8924 1.06189 43.5154 3.77051 41.2948 7.74804C39.5593 6.40962 37.3553 5.60935 34.9543 5.60935C29.3623 5.60935 24.8319 9.95029 24.8319 15.304C19.2399 15.304 14.7074 19.6449 14.7074 24.9986C14.7074 27.9237 16.0614 30.5449 18.1991 32.3222C17.1333 33.2178 16.4595 34.5324 16.4595 35.9979C16.4595 38.6986 18.7464 40.8889 21.5663 40.8889H22.6984L23.084 40.9902C22.858 41.8004 22.7378 42.6503 22.7378 43.528C22.7378 45.6389 23.4344 47.5929 24.6163 49.1955C23.2872 49.7257 22.3542 50.9807 22.3542 52.4442C22.3542 54.3883 24.0005 55.965 26.0303 55.965H53.9592C55.7071 55.965 57.1667 54.7954 57.54 53.2286H69.292C72.4436 53.2286 75.0001 50.7821 75.0001 47.7617V46.0539C74.9981 43.0375 72.4436 40.589 69.29 40.589Z" stroke="#232323" stroke-width="1.5" stroke-miterlimit="10"/>
<path d="M14.7094 55.967H56.0636" stroke="#232323" stroke-width="1.5" stroke-miterlimit="10"/>
<path d="M56.0638 37.4019V55.3316" stroke="#232323" stroke-width="1.5" stroke-miterlimit="10"/>
<path d="M37.8965 64.6966L31.1123 71.5079L27.5564 68.2095L25.1243 69.2103L24.7407 74L15.8706 73.9186L16.0966 69.0852L13.5069 68.3346L9.92823 71.5416L3.54834 65.4373L6.45734 61.8331L5.93484 59.4978H1.00012L1.23442 50.8517H5.41234L6.45734 48.3198L3.56078 45.1465L10.3035 38.8436" stroke="#232323" stroke-width="1.5" stroke-miterlimit="10"/>
<path d="M11.6782 55.0199C11.6782 55.0199 13.5048 67.5622 25.908 62.7089" stroke="#232323" stroke-width="1.5" stroke-miterlimit="10"/>
<path d="M44.8548 24.3334H13.9485V49.9183H44.8548V24.3334Z" fill="#EF9133"/>
<path d="M13.9485 33.0787H44.8548" stroke="#232323" stroke-width="1.5" stroke-miterlimit="10"/>
<path d="M13.4197 41.4907H44.8547" stroke="#232323" stroke-width="1.5" stroke-miterlimit="10"/>
<path d="M17.9564 28.5134H25.7338" stroke="#232323" stroke-width="1.5" stroke-miterlimit="10"/>
<path d="M17.9564 37.1278H25.7338" stroke="#232323" stroke-width="1.5" stroke-miterlimit="10"/>
<path d="M17.9564 45.5536H25.7338" stroke="#232323" stroke-width="1.5" stroke-miterlimit="10"/>
<path d="M44.8548 24.3334H13.9485V49.9183H44.8548V24.3334Z" stroke="#232323" stroke-width="1.5" stroke-miterlimit="10"/>
<path d="M55.5535 58.4097C56.8337 58.4097 57.8715 57.4157 57.8715 56.1896C57.8715 54.9635 56.8337 53.9695 55.5535 53.9695C54.2732 53.9695 53.2354 54.9635 53.2354 56.1896C53.2354 57.4157 54.2732 58.4097 55.5535 58.4097Z" fill="#E6E6E6"/>
<path d="M55.5535 58.4214C56.8337 58.4214 57.8715 57.4275 57.8715 56.2013C57.8715 54.9752 56.8337 53.9812 55.5535 53.9812C54.2732 53.9812 53.2354 54.9752 53.2354 56.2013C53.2354 57.4275 54.2732 58.4214 55.5535 58.4214Z" stroke="#232323" stroke-width="1.5" stroke-miterlimit="10"/>
<path d="M31.3921 49.9204H27.3054V53.9813H31.3921V49.9204Z" fill="white"/>
<path d="M31.3921 49.9204H27.3054V53.9813H31.3921V49.9204Z" stroke="#232323" stroke-width="1.5" stroke-miterlimit="10"/>
<path d="M31.1661 29.0337C31.5772 29.0337 31.9104 28.7145 31.9104 28.3208C31.9104 27.9271 31.5772 27.6079 31.1661 27.6079C30.755 27.6079 30.4217 27.9271 30.4217 28.3208C30.4217 28.7145 30.755 29.0337 31.1661 29.0337Z" fill="#232323"/>
<path d="M34.8652 29.0337C35.2763 29.0337 35.6095 28.7145 35.6095 28.3208C35.6095 27.9271 35.2763 27.6079 34.8652 27.6079C34.4541 27.6079 34.1208 27.9271 34.1208 28.3208C34.1208 28.7145 34.4541 29.0337 34.8652 29.0337Z" fill="#232323"/>
<path d="M38.1203 29.0337C38.5314 29.0337 38.8646 28.7145 38.8646 28.3208C38.8646 27.9271 38.5314 27.6079 38.1203 27.6079C37.7092 27.6079 37.3759 27.9271 37.3759 28.3208C37.3759 28.7145 37.7092 29.0337 38.1203 29.0337Z" fill="#232323"/>
<path d="M31.1661 37.8407C31.5772 37.8407 31.9104 37.5215 31.9104 37.1278C31.9104 36.7341 31.5772 36.4149 31.1661 36.4149C30.755 36.4149 30.4217 36.7341 30.4217 37.1278C30.4217 37.5215 30.755 37.8407 31.1661 37.8407Z" fill="#232323"/>
<path d="M34.8652 37.8407C35.2763 37.8407 35.6095 37.5215 35.6095 37.1278C35.6095 36.7341 35.2763 36.4149 34.8652 36.4149C34.4541 36.4149 34.1208 36.7341 34.1208 37.1278C34.1208 37.5215 34.4541 37.8407 34.8652 37.8407Z" fill="#232323"/>
<path d="M38.1203 37.8407C38.5314 37.8407 38.8646 37.5215 38.8646 37.1278C38.8646 36.7341 38.5314 36.4149 38.1203 36.4149C37.7092 36.4149 37.3759 36.7341 37.3759 37.1278C37.3759 37.5215 37.7092 37.8407 38.1203 37.8407Z" fill="#232323"/>
<path d="M31.1661 46.2664C31.5772 46.2664 31.9104 45.9472 31.9104 45.5535C31.9104 45.1598 31.5772 44.8406 31.1661 44.8406C30.755 44.8406 30.4217 45.1598 30.4217 45.5535C30.4217 45.9472 30.755 46.2664 31.1661 46.2664Z" fill="#232323"/>
<path d="M34.8652 46.2664C35.2763 46.2664 35.6095 45.9472 35.6095 45.5535C35.6095 45.1598 35.2763 44.8406 34.8652 44.8406C34.4541 44.8406 34.1208 45.1598 34.1208 45.5535C34.1208 45.9472 34.4541 46.2664 34.8652 46.2664Z" fill="#232323"/>
<path d="M38.1203 46.2664C38.5314 46.2664 38.8646 45.9472 38.8646 45.5535C38.8646 45.1598 38.5314 44.8406 38.1203 44.8406C37.7092 44.8406 37.3759 45.1598 37.3759 45.5535C37.3759 45.9472 37.7092 46.2664 38.1203 46.2664Z" fill="#232323"/>
<path d="M40.9547 53.9812H19.4493V57.9448H40.9547V53.9812Z" fill="white"/>
<path d="M40.9547 53.9812H19.4493V57.9448H40.9547V53.9812Z" stroke="#232323" stroke-width="1.5" stroke-miterlimit="10"/>
<path d="M56.951 22.2125H48.8212C47.3097 22.2125 46.0864 21.0389 46.0864 19.5933V11.807C46.0864 10.3594 47.3118 9.18774 48.8212 9.18774H56.951C58.4626 9.18774 59.6859 10.3613 59.6859 11.807V19.5933C59.6859 21.0409 58.4605 22.2125 56.951 22.2125Z" fill="#E6E6E6" stroke="black"/>
<path d="M54.3821 14.2675V11.4199H51.3881V14.2675H48.4169V17.133H51.3881V19.9807H54.3821V17.133H57.3533V14.2675H54.3821Z" fill="#FC4349"/>
<path d="M54.3821 14.2674V11.4198H51.388V14.2674H48.4168V17.1329H51.388V19.9805H54.3821V17.1329H57.3532V14.2674H54.3821Z" fill="#EF9133" stroke="black" stroke-linecap="round"/>
</svg>
