<svg width="84" height="72" viewBox="0 0 84 72" fill="none" xmlns="http://www.w3.org/2000/svg">
<path d="M55.215 63.5242H34.8844V70.9999H55.215V63.5242Z" fill="white"/>
<path d="M40.6272 23.4292H67.8754C69.8648 23.4292 71.4795 25.0605 71.4795 27.0747V59.8788C71.4795 61.8911 69.8667 63.5243 67.8754 63.5243H22.9017C20.9124 63.5243 19.2977 61.893 19.2977 59.8788V27.0728C19.2977 25.0605 20.9105 23.4272 22.9017 23.4272H32.7401" fill="#2F78CD"/>
<path d="M40.628 23.4292H67.8753C69.8647 23.4292 71.4795 25.0604 71.4795 27.0745V59.879C71.4795 61.8911 69.8666 63.5243 67.8753 63.5243H22.9019C20.9124 63.5243 19.2977 61.8931 19.2977 59.879V27.0726C19.2977 25.0604 20.9105 23.4272 22.9019 23.4272H32.7406" stroke="#232323" stroke-width="1.5" stroke-miterlimit="10" stroke-linecap="round"/>
<path d="M23.3637 48.5728H52.5042" stroke="#232323" stroke-width="1.5" stroke-miterlimit="10" stroke-linecap="round"/>
<path d="M51.1488 28.1846H46.405V48.5729H51.1488V28.1846Z" stroke="#232323" stroke-width="1.5" stroke-miterlimit="10" stroke-linecap="round"/>
<path d="M41.6613 33.6213H36.2398V48.5728H41.6613V33.6213Z" stroke="#232323" stroke-width="1.5" stroke-miterlimit="10" stroke-linecap="round"/>
<path d="M32.1736 38.3787H26.7522V48.5728H32.1736V38.3787Z" stroke="#232323" stroke-width="1.5" stroke-miterlimit="10" stroke-linecap="round"/>
<path d="M59.9588 36.3398H66.7357" stroke="#232323" stroke-width="1.5" stroke-miterlimit="10" stroke-linecap="round"/>
<path d="M59.9588 41.0972H66.7357" stroke="#232323" stroke-width="1.5" stroke-miterlimit="10" stroke-linecap="round"/>
<path d="M59.9588 45.8542H66.7357" stroke="#232323" stroke-width="1.5" stroke-miterlimit="10" stroke-linecap="round"/>
<path d="M19.2977 53.3301H71.4795" stroke="#232323" stroke-width="1.5" stroke-miterlimit="10" stroke-linecap="round"/>
<path d="M55.215 63.5242H34.8844V70.9999H55.215V63.5242Z" stroke="#232323" stroke-width="1.5" stroke-miterlimit="10" stroke-linecap="round"/>
<path d="M26.7522 71H64.0249" stroke="#232323" stroke-width="1.5" stroke-miterlimit="10" stroke-linecap="round"/>
<path d="M20.4423 16.1941C21.823 16.1941 22.9423 15.0748 22.9423 13.6941C22.9423 12.3134 21.823 11.1941 20.4423 11.1941C19.0615 11.1941 17.9423 12.3134 17.9423 13.6941C17.9423 15.0748 19.0615 16.1941 20.4423 16.1941Z" fill="#EF9133"/>
<path d="M30.6076 6C31.9883 6 33.1076 4.88071 33.1076 3.5C33.1076 2.11929 31.9883 1 30.6076 1C29.2269 1 28.1076 2.11929 28.1076 3.5C28.1076 4.88071 29.2269 6 30.6076 6Z" fill="#EF9133"/>
<path d="M40.7728 16.1941C42.1535 16.1941 43.2728 15.0748 43.2728 13.6941C43.2728 12.3134 42.1535 11.1941 40.7728 11.1941C39.3921 11.1941 38.2728 12.3134 38.2728 13.6941C38.2728 15.0748 39.3921 16.1941 40.7728 16.1941Z" fill="#EF9133"/>
<path d="M50.2604 6C51.6411 6 52.7604 4.88071 52.7604 3.5C52.7604 2.11929 51.6411 1 50.2604 1C48.8797 1 47.7604 2.11929 47.7604 3.5C47.7604 4.88071 48.8797 6 50.2604 6Z" fill="#EF9133"/>
<path d="M20.4423 16.1941C21.823 16.1941 22.9423 15.0748 22.9423 13.6941C22.9423 12.3134 21.823 11.1941 20.4423 11.1941C19.0615 11.1941 17.9423 12.3134 17.9423 13.6941C17.9423 15.0748 19.0615 16.1941 20.4423 16.1941Z" stroke="#232323" stroke-width="1.5" stroke-miterlimit="10" stroke-linecap="round"/>
<path d="M57.2481 37.699C57.6223 37.699 57.9257 37.2426 57.9257 36.6796C57.9257 36.1166 57.6223 35.6602 57.2481 35.6602C56.8738 35.6602 56.5704 36.1166 56.5704 36.6796C56.5704 37.2426 56.8738 37.699 57.2481 37.699Z" fill="#232323"/>
<path d="M57.2481 41.7766C57.6223 41.7766 57.9257 41.3202 57.9257 40.7572C57.9257 40.1942 57.6223 39.7378 57.2481 39.7378C56.8738 39.7378 56.5704 40.1942 56.5704 40.7572C56.5704 41.3202 56.8738 41.7766 57.2481 41.7766Z" fill="#232323"/>
<path d="M57.2481 46.534C57.6223 46.534 57.9257 46.0775 57.9257 45.5145C57.9257 44.9515 57.6223 44.4951 57.2481 44.4951C56.8738 44.4951 56.5704 44.9515 56.5704 45.5145C56.5704 46.0775 56.8738 46.534 57.2481 46.534Z" fill="#232323"/>
<path d="M30.6076 6C31.9883 6 33.1076 4.88071 33.1076 3.5C33.1076 2.11929 31.9883 1 30.6076 1C29.2269 1 28.1076 2.11929 28.1076 3.5C28.1076 4.88071 29.2269 6 30.6076 6Z" stroke="#232323" stroke-width="1.5" stroke-miterlimit="10" stroke-linecap="round"/>
<path d="M40.7728 16.1941C42.1535 16.1941 43.2728 15.0748 43.2728 13.6941C43.2728 12.3134 42.1535 11.1941 40.7728 11.1941C39.3921 11.1941 38.2728 12.3134 38.2728 13.6941C38.2728 15.0748 39.3921 16.1941 40.7728 16.1941Z" stroke="#232323" stroke-width="1.5" stroke-miterlimit="10" stroke-linecap="round"/>
<path d="M50.2604 6C51.6411 6 52.7604 4.88071 52.7604 3.5C52.7604 2.11929 51.6411 1 50.2604 1C48.8797 1 47.7604 2.11929 47.7604 3.5C47.7604 4.88071 48.8797 6 50.2604 6Z" stroke="#232323" stroke-width="1.5" stroke-miterlimit="10" stroke-linecap="round"/>
<path d="M12.5208 5.07764L18.6199 12.5534" stroke="#232323" stroke-width="1.5" stroke-miterlimit="10" stroke-linecap="round"/>
<path d="M22.6861 12.5534L28.7853 5.07764" stroke="#232323" stroke-width="1.5" stroke-miterlimit="10" stroke-linecap="round"/>
<path d="M32.8514 5.07764L38.2729 12.5534" stroke="#232323" stroke-width="1.5" stroke-miterlimit="10" stroke-linecap="round"/>
<path d="M43.0167 12.5534L48.4382 5.07764" stroke="#232323" stroke-width="1.5" stroke-miterlimit="10" stroke-linecap="round"/>
<path d="M22.0084 29.4717C22.0084 32.277 20.9687 34.833 19.2634 36.7528C18.6374 37.4566 19.7823 41.0971 19.7823 41.0971C19.7823 41.0971 16.3342 39.0787 15.9093 39.2797C14.5688 39.9177 13.076 40.2735 11.5043 40.2735C5.70226 40.2735 1.00012 35.4362 1.00012 29.4717C1.00012 23.5072 5.70414 18.6699 11.5043 18.6699C17.3044 18.6699 22.0084 23.5053 22.0084 29.4717Z" fill="#EF9133"/>
<path d="M22.0084 29.4717C22.0084 32.277 20.9687 34.833 19.2634 36.7528C18.6374 37.4566 19.7823 41.0971 19.7823 41.0971C19.7823 41.0971 16.3342 39.0787 15.9093 39.2797C14.5688 39.9177 13.076 40.2735 11.5043 40.2735C5.70226 40.2735 1.00012 35.4362 1.00012 29.4717C1.00012 23.5072 5.70414 18.6699 11.5043 18.6699C17.3044 18.6699 22.0084 23.5053 22.0084 29.4717Z" stroke="#232323" stroke-width="1.5" stroke-miterlimit="10" stroke-linecap="round"/>
<path d="M68.091 30.9029C76.3251 30.9029 83.0001 24.2089 83.0001 15.9515C83.0001 7.69399 76.3251 1 68.091 1C59.8569 1 53.1819 7.69399 53.1819 15.9515C53.1819 24.2089 59.8569 30.9029 68.091 30.9029Z" fill="#EF9133"/>
<path d="M80.4257 7.55003C82.0505 9.94394 83.0001 12.8367 83.0001 15.9515C83.0001 24.2087 76.3249 30.9029 68.091 30.9029C59.8572 30.9029 53.1819 24.2087 53.1819 15.9515C53.1819 7.6942 59.8572 1 68.091 1C71.1326 1 73.9604 1.91241 76.3192 3.48116" stroke="#232323" stroke-width="1.5" stroke-miterlimit="10" stroke-linecap="round"/>
<path d="M68.091 1V30.9029" stroke="#232323" stroke-width="1.5" stroke-miterlimit="10" stroke-linecap="round"/>
<path d="M68.091 15.9514H83.0001" stroke="#232323" stroke-width="1.5" stroke-miterlimit="10" stroke-linecap="round"/>
<path d="M10.8265 6.43689C12.1365 6.43689 13.1984 5.2198 13.1984 3.71845C13.1984 2.21709 12.1365 1 10.8265 1C9.51656 1 8.45462 2.21709 8.45462 3.71845C8.45462 5.2198 9.51656 6.43689 10.8265 6.43689Z" fill="#EF9133"/>
<path d="M10.9546 6C12.3353 6 13.4546 4.88071 13.4546 3.5C13.4546 2.11929 12.3353 1 10.9546 1C9.57391 1 8.45462 2.11929 8.45462 3.5C8.45462 4.88071 9.57391 6 10.9546 6Z" stroke="#232323" stroke-width="1.5" stroke-miterlimit="10" stroke-linecap="round"/>
</svg>
