<svg width="61" height="97" viewBox="0 0 61 97" fill="none" xmlns="http://www.w3.org/2000/svg">
<path d="M12.7103 30.5603V54.3354H47.0732V28.9766L12.7103 30.5603Z" fill="#333333"/>
<path d="M47.2737 54.3353H12.5099V30.303L12.7003 30.2945L47.2757 28.7054V54.3353H47.2737ZM12.9108 53.9932H46.8728V29.0664L12.9108 30.628V53.9932Z" fill="black" stroke="black" stroke-linecap="round"/>
<path d="M59.8959 88.8713H1.10234V76.346C1.10234 66.7409 9.05012 58.9563 18.8521 58.9563H42.1442C51.9481 58.9563 59.8939 66.7429 59.8939 76.346V88.8713H59.8959Z" fill="#2F78CD"/>
<path d="M59.9981 88.9714H1.00012V76.344C1.00012 66.6996 9.01004 58.8522 18.8541 58.8522H42.1462C43.6255 58.8522 45.0948 59.0289 46.516 59.3804L46.4658 59.5768C45.0627 59.2312 43.6095 59.0544 42.1482 59.0544H18.8541C9.12229 59.0544 1.20658 66.8096 1.20658 76.344V88.7691H59.7937V76.344C59.7937 70.4505 56.7729 65.0186 51.7156 61.8136L51.8278 61.6447C56.9453 64.887 60.0001 70.3818 60.0001 76.344V88.9714H59.9981Z" fill="black" stroke="black" stroke-linecap="round"/>
<path d="M30.6524 62.8251H30.1954C28.0566 62.8251 26.3227 61.1264 26.3227 59.031V54.3669C26.3227 52.2715 28.0566 50.5728 30.1954 50.5728H30.6524C32.7912 50.5728 34.5251 52.2715 34.5251 54.3669V59.031C34.5251 61.1244 32.7912 62.8251 30.6524 62.8251Z" fill="white"/>
<path d="M45.0447 39.3062C47.3097 39.3062 49.1458 37.5073 49.1458 35.2883C49.1458 33.0692 47.3097 31.2703 45.0447 31.2703C42.7796 31.2703 40.9435 33.0692 40.9435 35.2883C40.9435 37.5073 42.7796 39.3062 45.0447 39.3062Z" fill="white"/>
<path d="M15.4705 39.3062C17.7356 39.3062 19.5717 37.5073 19.5717 35.2883C19.5717 33.0692 17.7356 31.2703 15.4705 31.2703C13.2055 31.2703 11.3694 33.0692 11.3694 35.2883C11.3694 37.5073 13.2055 39.3062 15.4705 39.3062Z" fill="white"/>
<path d="M30.6524 62.935H30.1954C27.9985 62.935 26.2105 61.1833 26.2105 59.0309V54.3669C26.2105 52.2145 27.9985 50.4628 30.1954 50.4628H30.6524C32.8493 50.4628 34.6373 52.2145 34.6373 54.3669V59.0309C34.6373 61.1833 32.8493 62.935 30.6524 62.935ZM30.1954 50.6808C28.1207 50.6808 26.435 52.3343 26.435 54.3649V59.029C26.435 61.0615 28.1227 62.7131 30.1954 62.7131H30.6524C32.727 62.7131 34.4128 61.0596 34.4128 59.029V54.3649C34.4128 52.3323 32.725 50.6808 30.6524 50.6808H30.1954Z" fill="black"/>
<path d="M44.9063 39.4475C42.535 39.4475 40.6047 37.5564 40.6047 35.2332C40.6047 32.91 42.535 31.0188 44.9063 31.0188C47.2776 31.0188 49.208 32.91 49.208 35.2332C49.208 37.5564 47.2776 39.4475 44.9063 39.4475ZM44.9063 31.4116C42.7555 31.4116 41.0056 33.126 41.0056 35.2332C41.0056 37.3404 42.7555 39.0548 44.9063 39.0548C47.0571 39.0548 48.8071 37.3404 48.8071 35.2332C48.8071 33.126 47.0571 31.4116 44.9063 31.4116Z" fill="black" stroke="black" stroke-linecap="round"/>
<path d="M15.3342 39.4475C12.9629 39.4475 11.0326 37.5564 11.0326 35.2332C11.0326 32.91 12.9629 31.0188 15.3342 31.0188C17.7055 31.0188 19.6358 32.91 19.6358 35.2332C19.6358 37.5564 17.7055 39.4475 15.3342 39.4475ZM15.3342 31.4116C13.1834 31.4116 11.4335 33.126 11.4335 35.2332C11.4335 37.3404 13.1834 39.0548 15.3342 39.0548C17.485 39.0548 19.2349 37.3404 19.2349 35.2332C19.2349 33.126 17.485 31.4116 15.3342 31.4116Z" fill="black" stroke="black" stroke-linecap="round"/>
<path d="M15.8393 26.4156V39.5596C15.8393 47.6427 21.7425 54.1979 29.0268 54.1979H31.2137C38.496 54.1979 44.4012 47.6446 44.4012 39.5596V26.4156H15.8393Z" fill="white"/>
<path d="M24.4226 38.2654C25.0514 38.2654 25.5611 37.4354 25.5611 36.4116C25.5611 35.3877 25.0514 34.5577 24.4226 34.5577C23.7938 34.5577 23.284 35.3877 23.284 36.4116C23.284 37.4354 23.7938 38.2654 24.4226 38.2654Z" fill="#333333"/>
<path d="M36.8803 38.2654C37.5091 38.2654 38.0189 37.4354 38.0189 36.4116C38.0189 35.3877 37.5091 34.5577 36.8803 34.5577C36.2515 34.5577 35.7418 35.3877 35.7418 36.4116C35.7418 37.4354 36.2515 38.2654 36.8803 38.2654Z" fill="#333333"/>
<path d="M31.0753 54.3353H28.8884C21.5059 54.3353 15.5005 47.6819 15.5005 39.5006V26.1603H44.4613V39.5006C44.4633 47.6819 38.4578 54.3353 31.0753 54.3353ZM15.9014 26.555V39.5025C15.9014 47.4658 21.7264 53.9445 28.8884 53.9445H31.0753C38.2353 53.9445 44.0624 47.4658 44.0624 39.5025V26.555H15.9014Z" fill="black" stroke="black" stroke-linecap="round"/>
<path d="M37.2592 30.0802L38.6985 31.0522C39.3419 31.4863 40.1036 31.718 40.8834 31.718H47.0732V26.561C47.0732 18.4779 39.382 11.9226 31.1295 11.9226H28.652C20.4015 11.9226 12.7083 18.4759 12.7083 26.561V31.718H30.4921C31.6126 31.718 32.683 31.2702 33.4587 30.4769L35.7398 28.1458" fill="#333333"/>
<path d="M47.2737 31.8495H40.8834C40.0575 31.8495 39.2637 31.608 38.5842 31.1485L37.145 30.1764L37.3715 29.8523L38.8107 30.8244C39.4221 31.2368 40.1397 31.4548 40.8814 31.4548H46.8708V26.4942C46.8708 18.8019 39.5143 12.0522 31.1275 12.0522H28.65C20.2632 12.0522 12.9068 18.7999 12.9068 26.4942V31.4548H30.4901C31.5505 31.4548 32.5788 31.0247 33.3124 30.2745L35.5935 27.9435L35.8822 28.2145L33.6011 30.5456C32.7913 31.3723 31.6587 31.8456 30.4901 31.8456H12.5099V26.4922C12.5099 22.5822 14.2658 18.8549 17.4529 15.9975C20.5278 13.2403 24.6109 11.6594 28.654 11.6594H31.1315C35.1746 11.6594 39.2577 13.2403 42.3326 15.9975C45.5197 18.8549 47.2757 22.5822 47.2757 26.4922V31.8495H47.2737Z" fill="black" stroke="black" stroke-linecap="round"/>
<path d="M42.2143 81.7563C39.2677 81.7563 36.8784 79.4154 36.8784 76.5286V71.4501C36.8784 71.3677 36.9465 71.3029 37.0287 71.3029H47.3979C47.4821 71.3029 47.5483 71.3696 47.5483 71.4501V76.5286C47.5503 79.4154 45.1609 81.7563 42.2143 81.7563Z" fill="#2F78CD"/>
<path d="M42.2164 81.8584C39.2177 81.8584 36.7782 79.4684 36.7782 76.5305V71.452C36.7782 71.3146 36.8925 71.2026 37.0328 71.2026H47.402C47.5423 71.2026 47.6566 71.3146 47.6566 71.452V76.5305C47.6546 79.4664 45.2131 81.8584 42.2164 81.8584ZM37.0308 71.4029C37.0047 71.4029 36.9827 71.4245 36.9827 71.4501V76.5285C36.9827 79.3545 39.3299 81.6541 42.2144 81.6541C45.0988 81.6541 47.4461 79.3545 47.4461 76.5285V71.4501C47.4461 71.4245 47.424 71.4029 47.398 71.4029H37.0308Z" fill="#FA8C1E" stroke="black" stroke-linecap="round"/>
<path d="M41.4887 17.7767H19.2088L16.7894 11.9657C15.7371 9.43826 16.9398 6.54947 19.4975 5.46544L28.7261 1.55546C30.0832 0.980057 31.6286 1.00755 32.9636 1.63205L41.6731 5.32797C43.9783 6.40415 45.1208 8.97873 44.3531 11.3648L41.4887 17.7767Z" fill="white"/>
<path d="M41.5849 17.9202H19.1106L16.6531 12.0209C15.5787 9.4404 16.8275 6.43967 19.4394 5.33404L28.668 1.42406C30.0652 0.832948 31.6527 0.860441 33.0258 1.50261L41.7313 5.19657C44.0925 6.30024 45.2772 8.96908 44.4914 11.4082L41.5849 17.9202ZM19.3071 17.6335H41.3925L44.2188 11.308C44.9545 9.01818 43.836 6.49859 41.611 5.45776L32.9055 1.7638C31.6046 1.15502 30.1032 1.12949 28.7843 1.68721L19.5556 5.59719C17.0901 6.64195 15.9095 9.47575 16.9237 11.9129L19.3071 17.6335Z" fill="black" stroke="black"/>
<path d="M32.0135 95.9607H15.4805C14.0212 95.9607 12.8406 94.802 12.8406 93.3743V71.7565C12.8406 70.3269 14.0232 69.1702 15.4805 69.1702H32.0135C33.4727 69.1702 34.6534 70.3288 34.6534 71.7565V93.3724C34.6554 94.802 33.4727 95.9607 32.0135 95.9607Z" fill="#EF9133"/>
<path d="M32.1739 8.7746V5.51465H28.8244V8.7746H25.499V12.0562H28.8244V15.3141H32.1739V12.0562H35.5014V8.7746H32.1739Z" fill="#EF9133"/>
<path d="M32.0134 95.9999H15.4804C13.9129 95.9999 12.6401 94.7509 12.6401 93.2172V71.6013C12.6401 70.0656 13.9149 68.8186 15.4804 68.8186H32.0134C33.5809 68.8186 34.8538 70.0676 34.8538 71.6013V93.2172C34.8558 94.7509 33.5809 95.9999 32.0134 95.9999ZM15.4804 69.2094C14.1354 69.2094 13.041 70.2817 13.041 71.5994V93.2152C13.041 94.533 14.1354 95.6052 15.4804 95.6052H32.0134C33.3585 95.6052 34.4529 94.533 34.4529 93.2152V71.6013C34.4529 70.2836 33.3585 69.2114 32.0134 69.2114H15.4804V69.2094Z" fill="black" stroke="black" stroke-linecap="round"/>
<path d="M28.0506 67.2357H19.4434V71.1064H28.0506V67.2357Z" fill="white"/>
<path d="M28.213 71.1065H19.2831V66.9216H28.213V71.1065ZM19.6038 70.7904H27.8883V67.2358H19.6038V70.7904Z" fill="black" stroke="black" stroke-linecap="round"/>
<path d="M30.6905 49.6163C29.2653 49.6163 27.77 49.1352 26.2145 48.1729C26.1203 48.1159 26.0922 47.9942 26.1524 47.9019C26.2125 47.8096 26.3348 47.784 26.429 47.841C29.3896 49.6713 32.1077 49.6752 34.5111 47.8508C34.5992 47.784 34.7255 47.7997 34.7917 47.8862C34.8598 47.9726 34.8438 48.0943 34.7556 48.1611C33.4787 49.1312 32.1197 49.6163 30.6905 49.6163Z" fill="black"/>
</svg>
