<svg width="65" height="83" viewBox="0 0 65 83" fill="none" xmlns="http://www.w3.org/2000/svg">
<g clip-path="url(#clip0)">
<path d="M49.5296 28.1035H11.5724V56.717H49.5296V28.1035Z" fill="#2F78CD"/>
<path fill-rule="evenodd" clip-rule="evenodd" d="M10.8555 49.176V38.9719H11.313V49.176H10.8555Z" fill="black"/>
<path fill-rule="evenodd" clip-rule="evenodd" d="M19.3892 7.25208H41.1673V16.8442L49.0325 24.6523C49.4884 25.1049 49.7434 25.7192 49.7434 26.3583V31.6146H49.3158V26.3583C49.3158 25.8313 49.1055 25.3251 48.7301 24.9525L40.7397 17.02V7.67655H19.8168V17.8718L12.3717 25.2648C11.9964 25.6374 11.7861 26.1436 11.7861 26.6706V32.1692H11.3585V26.6706C11.3585 26.0316 11.6134 25.4172 12.0694 24.9646C12.0694 24.9646 12.0694 24.9646 12.0694 24.9646L19.3892 17.696V7.25208Z" fill="black"/>
<path d="M12.0694 24.9646C11.6134 25.4172 11.3585 26.0316 11.3585 26.6706V32.1692H11.7861V26.6706C11.7861 26.1436 11.9964 25.6374 12.3717 25.2648L19.8168 17.8718V7.67655H40.7397V17.02L48.7301 24.9525C49.1055 25.3251 49.3158 25.8313 49.3158 26.3583V31.6146H49.7434V26.3583C49.7434 25.7192 49.4884 25.1049 49.0325 24.6523L41.1673 16.8442V7.25208H19.3892V17.696L12.0694 24.9646ZM12.0694 24.9646C12.0694 24.9646 12.0694 24.9646 12.0694 24.9646Z" stroke="black" stroke-miterlimit="10"/>
<path fill-rule="evenodd" clip-rule="evenodd" d="M49.7453 38.0331V59.9233C49.7453 64.8331 45.7352 68.8141 40.7896 68.8141H20.3142C15.3685 68.8141 11.3585 64.8331 11.3585 59.9233V50.9458H11.7861V59.9233C11.7861 64.5987 15.6047 68.3896 20.3142 68.3896H40.7896C45.4991 68.3896 49.3177 64.5987 49.3177 59.9233V38.0331H49.7453Z" fill="black" stroke="black" stroke-miterlimit="10"/>
<path fill-rule="evenodd" clip-rule="evenodd" d="M49.5296 28.3157H11.5724V27.8912H49.5296V28.3157Z" fill="black" stroke="black" stroke-miterlimit="10"/>
<path fill-rule="evenodd" clip-rule="evenodd" d="M11.5724 56.5048H49.5296V56.9293H11.5724V56.5048Z" fill="black" stroke="black" stroke-miterlimit="10"/>
<path d="M40.6294 10.2752H19.9977C18.1712 10.2752 16.6897 8.8045 16.6897 6.99119V4.49458C16.6897 2.68128 18.1712 1.21057 19.9977 1.21057H40.6294C42.456 1.21057 43.9374 2.68128 43.9374 4.49458V6.99119C43.9374 8.8045 42.456 10.2752 40.6294 10.2752Z" fill="#2F78CD"/>
<path fill-rule="evenodd" clip-rule="evenodd" d="M20.0759 1.42277C18.3674 1.42277 16.9817 2.79846 16.9817 4.49454V6.99115C16.9817 8.68724 18.3674 10.0629 20.0759 10.0629H40.7095C42.4178 10.0629 43.8018 8.6874 43.8018 6.99115V4.49454C43.8018 2.79846 42.4161 1.42277 40.7076 1.42277H20.0759ZM16.5541 4.49454C16.5541 2.56402 18.1313 0.998291 20.0759 0.998291H40.7076C42.6522 0.998291 44.2294 2.56402 44.2294 4.49454V6.99115C44.2294 8.92151 42.6543 10.4874 40.7095 10.4874H20.0759C18.1313 10.4874 16.5541 8.92167 16.5541 6.99115V4.49454Z" fill="black" stroke="black" stroke-miterlimit="10"/>
<path d="M64.1954 71.2745C64.1954 74.3503 57.4574 76.845 49.1444 76.845C40.8315 76.845 34.0935 74.3522 34.0935 71.2745C34.0935 69.8852 33.4071 63.1847 35.1116 61.3733C39.2948 56.9271 44.5475 56.929 49.1044 56.929C51.6574 56.929 54.2008 57.2697 56.6451 58.0268C58.6204 58.6363 61.3774 59.4653 62.8341 61.0155C63.8465 62.0925 64.1802 63.656 64.2297 65.1418C64.2965 67.1785 64.1954 69.2341 64.1954 71.2745Z" fill="#2F78CD"/>
<path fill-rule="evenodd" clip-rule="evenodd" d="M38.3211 59.1785C35.7484 60.436 34.3121 62.1349 34.3121 63.9494C34.3121 64.8464 34.7358 65.7172 35.5309 66.5278C36.3269 67.3392 37.4849 68.0788 38.9207 68.704C41.7915 69.9541 45.7332 70.7301 49.9853 70.7301C54.2375 70.7301 57.7682 69.9541 60.2273 68.7093C62.6927 67.4614 64.036 65.7701 64.036 63.9494C64.036 62.1459 62.4145 60.4439 59.6275 59.1804C56.8596 57.9256 53.0207 57.1441 48.7689 57.1441C44.517 57.1441 40.8834 57.9261 38.3211 59.1785ZM38.1297 58.7925C40.7664 57.5038 44.4695 56.7139 48.7689 56.7139C53.0683 56.7139 56.9712 57.5033 59.8075 58.7891C62.6246 60.0662 64.4693 61.8745 64.4693 63.9494C64.4693 66.0051 62.9545 67.8117 60.4241 69.0926C57.8874 70.3766 54.2843 71.1603 49.9853 71.1603C45.6861 71.1603 41.6829 70.3766 38.7466 69.0979C37.2788 68.4587 36.0677 67.6916 35.2205 66.8279C34.3724 65.9634 33.8787 64.9906 33.8787 63.9494C33.8787 61.8874 35.5035 60.0761 38.1297 58.7925Z" fill="black" stroke="black" stroke-miterlimit="10"/>
<path fill-rule="evenodd" clip-rule="evenodd" d="M34.2641 70.3058C34.2881 70.7781 34.3073 71.1552 34.3073 71.3919C34.3073 72.06 34.6801 72.7237 35.4152 73.3538C36.1497 73.9834 37.225 74.56 38.5723 75.0484C41.2652 76.0248 44.9996 76.6328 49.1349 76.6328C50.8025 76.6328 52.4068 76.5349 53.9021 76.3524L53.9543 76.7737C52.4409 76.9584 50.8191 77.0573 49.1349 77.0573C44.963 77.0573 41.1767 76.4446 38.4256 75.4472C37.051 74.9488 35.9235 74.3503 35.1358 73.6751C34.3486 73.0004 33.8797 72.2296 33.8797 71.3919C33.8797 71.1803 33.8617 70.8284 33.8388 70.3797C33.7635 68.9039 33.6349 66.3814 33.916 64.3633L34.3396 64.4214C34.0651 66.3914 34.1885 68.82 34.2641 70.3058Z" fill="black" stroke="black" stroke-miterlimit="10"/>
<path fill-rule="evenodd" clip-rule="evenodd" d="M64.1076 68.1754C64.1609 67.0005 64.1754 65.7798 64.0254 64.6567L64.4493 64.601C64.6044 65.7625 64.5883 67.0138 64.5348 68.1945C64.5162 68.6051 64.4932 69.0055 64.471 69.391C64.429 70.1224 64.3901 70.8 64.3901 71.3918C64.3901 72.3291 63.8035 73.182 62.8376 73.9131C61.8688 74.6464 60.4874 75.2827 58.8181 75.7874L58.6935 75.3814C60.3359 74.8848 61.6648 74.2671 62.5783 73.5756C63.4948 72.8819 63.9625 72.1392 63.9625 71.3918C63.9625 70.7885 64.0026 70.0894 64.0451 69.3492C64.0671 68.9664 64.0896 68.5727 64.1076 68.1754Z" fill="black" stroke="black" stroke-miterlimit="10"/>
<path fill-rule="evenodd" clip-rule="evenodd" d="M57.551 58.4135L38.336 68.4207L38.1373 68.0448L57.3524 58.0376L57.551 58.4135Z" fill="black" stroke="black" stroke-miterlimit="10"/>
<path d="M26.0227 46.1968C26.0227 39.2673 20.3638 33.6494 13.3836 33.6494C6.40341 33.6494 0.744522 39.2673 0.744522 46.1968V58.2369H26.0246V46.1968H26.0227Z" fill="#EF9133"/>
<path d="M0.74263 58.2388V70.2789C0.74263 77.2084 6.40152 82.8263 13.3817 82.8263C20.3619 82.8263 26.0208 77.2084 26.0208 70.2789V58.2388H0.74263Z" fill="#2F78CD"/>
<path fill-rule="evenodd" clip-rule="evenodd" d="M5.82556 35.9272C7.94547 34.3886 10.5585 33.4791 13.3837 33.4791C20.4586 33.4791 26.1943 39.1732 26.1943 46.1968V58.4073H0.571106V46.1968H0.914243V58.0666H25.8512V46.1968C25.8512 39.3614 20.2691 33.8198 13.3837 33.8198C10.6338 33.8198 8.09131 34.7047 6.02807 36.2022L5.82556 35.9272Z" fill="black" stroke="black" stroke-miterlimit="10"/>
<path fill-rule="evenodd" clip-rule="evenodd" d="M0.571106 58.0685H26.1924V70.2789C26.1924 77.3025 20.4567 82.9966 13.3818 82.9966C6.30681 82.9966 0.571106 77.3025 0.571106 70.2789V58.0685ZM0.914243 58.4091V70.2789C0.914243 77.1144 6.49632 82.656 13.3818 82.656C20.2672 82.656 25.8493 77.1144 25.8493 70.2789V58.4091H0.914243Z" fill="black" stroke="black" stroke-miterlimit="10"/>
<path d="M32.3413 50.4537H27.1591C26.6081 50.4537 26.0208 57.2375 26.0208 57.2375C26.0208 57.2375 24.5088 50.0751 24.0207 49.8953C20.6117 48.6328 18.1845 45.3696 18.1845 41.5461C18.1845 36.6249 22.2018 32.6367 27.1591 32.6367H32.3413C37.2986 32.6367 41.3158 36.6249 41.3158 41.5461C41.3158 46.4636 37.2986 50.4537 32.3413 50.4537Z" fill="white"/>
<path fill-rule="evenodd" clip-rule="evenodd" d="M27.1362 32.8071C22.2737 32.8071 18.3332 36.719 18.3332 41.5462C18.3332 45.2962 20.7136 48.4971 24.0576 49.7356C24.1099 49.7549 24.1483 49.79 24.1737 49.8179C24.2009 49.8477 24.2255 49.8829 24.2477 49.9194C24.2922 49.9926 24.3373 50.0879 24.3827 50.1978C24.474 50.4186 24.575 50.7194 24.6807 51.0695C24.8924 51.7709 25.1281 52.6867 25.3478 53.594C25.5676 54.502 25.7721 55.4041 25.9216 56.079C25.9249 56.0938 25.9282 56.1084 25.9314 56.123C25.9949 55.4905 26.0842 54.6576 26.1902 53.8243C26.2982 52.9753 26.4239 52.1219 26.5579 51.4792C26.6246 51.1589 26.6948 50.884 26.7681 50.6864C26.8043 50.5886 26.8448 50.5002 26.8915 50.4331C26.9312 50.376 27.0106 50.2834 27.1362 50.2834H32.3184C37.1809 50.2834 41.1214 46.3696 41.1214 41.5462C41.1214 36.719 37.1809 32.8071 32.3184 32.8071H27.1362ZM25.9979 57.2375C25.83 57.2724 25.83 57.2724 25.83 57.2724L25.83 57.2721L25.813 57.1923C25.8018 57.1399 25.7854 57.063 25.7643 56.965C25.722 56.7691 25.6611 56.4889 25.5865 56.1522C25.4373 55.4785 25.2333 54.5787 25.0141 53.6737C24.7948 52.7679 24.561 51.8595 24.352 51.1673C24.2473 50.8206 24.1501 50.5324 24.0652 50.3271C24.0226 50.2239 23.9852 50.1469 23.9539 50.0954C23.9396 50.0719 23.9286 50.0571 23.9214 50.0488C20.456 48.7578 17.9901 45.4368 17.9901 41.5462C17.9901 36.5308 22.0842 32.4664 27.1362 32.4664H32.3184C37.3704 32.4664 41.4645 36.5308 41.4645 41.5462C41.4645 46.5577 37.3704 50.624 32.3184 50.624H27.1757C27.1751 50.6249 27.1744 50.6258 27.1738 50.6267C27.1513 50.659 27.1226 50.7163 27.0901 50.804C27.0258 50.9774 26.9597 51.2324 26.8939 51.5482C26.7628 52.1774 26.6384 53.02 26.5307 53.8669C26.4231 54.7129 26.3326 55.5592 26.269 56.1944C26.2373 56.5119 26.2122 56.7764 26.1951 56.9616C26.1866 57.0541 26.18 57.1268 26.1756 57.1764L26.1706 57.2329L26.1689 57.252C26.1689 57.2521 26.1689 57.2521 25.9979 57.2375ZM27.1898 50.6072C27.1898 50.6073 27.1889 50.6083 27.1871 50.6096C27.1889 50.6078 27.1898 50.6071 27.1898 50.6072ZM25.9979 57.2375L26.1689 57.252L26.0691 58.4049L25.83 57.2724L25.9979 57.2375Z" fill="black"/>
<path d="M25.83 57.2724C25.83 57.2724 25.83 57.2724 25.9979 57.2375M25.83 57.2724L25.83 57.2721L25.813 57.1923C25.8018 57.1399 25.7854 57.063 25.7643 56.965C25.722 56.7691 25.6611 56.4889 25.5865 56.1522C25.4373 55.4785 25.2333 54.5787 25.0141 53.6737C24.7948 52.7679 24.561 51.8595 24.352 51.1673C24.2473 50.8206 24.1501 50.5324 24.0652 50.3271C24.0226 50.2239 23.9852 50.1469 23.9539 50.0954C23.9396 50.0719 23.9286 50.0571 23.9214 50.0488C20.456 48.7578 17.9901 45.4368 17.9901 41.5462C17.9901 36.5308 22.0842 32.4664 27.1362 32.4664H32.3184C37.3704 32.4664 41.4645 36.5308 41.4645 41.5462C41.4645 46.5577 37.3704 50.624 32.3184 50.624H27.1757C27.1751 50.6249 27.1744 50.6258 27.1738 50.6267C27.1513 50.659 27.1226 50.7163 27.0901 50.804C27.0258 50.9774 26.9597 51.2324 26.8939 51.5482C26.7628 52.1774 26.6384 53.02 26.5307 53.8669C26.4231 54.7129 26.3326 55.5592 26.269 56.1944C26.2373 56.5119 26.2122 56.7764 26.1951 56.9616C26.1866 57.0541 26.18 57.1268 26.1756 57.1764L26.1706 57.2329L26.1689 57.252M25.83 57.2724L26.0691 58.4049L26.1689 57.252M25.83 57.2724L25.9979 57.2375M25.9979 57.2375C26.1689 57.2521 26.1689 57.2521 26.1689 57.252M25.9979 57.2375L26.1689 57.252M23.9164 50.0434C23.9157 50.0429 23.9154 50.0426 23.9154 50.0425M18.3332 41.5462C18.3332 36.719 22.2737 32.8071 27.1362 32.8071H32.3184C37.1809 32.8071 41.1214 36.719 41.1214 41.5462C41.1214 46.3696 37.1809 50.2834 32.3184 50.2834H27.1362C27.0106 50.2834 26.9312 50.376 26.8915 50.4331C26.8448 50.5002 26.8043 50.5886 26.7681 50.6864C26.6948 50.884 26.6246 51.1589 26.5579 51.4792C26.4239 52.1219 26.2982 52.9753 26.1902 53.8243C26.0842 54.6576 25.9949 55.4905 25.9314 56.123C25.9282 56.1084 25.9249 56.0938 25.9216 56.079C25.7721 55.4041 25.5676 54.502 25.3478 53.594C25.1281 52.6867 24.8924 51.7709 24.6807 51.0695C24.575 50.7194 24.474 50.4186 24.3827 50.1978C24.3373 50.0879 24.2922 49.9926 24.2477 49.9194C24.2255 49.8829 24.2009 49.8477 24.1737 49.8179C24.1483 49.79 24.1099 49.7549 24.0576 49.7356C20.7136 48.4971 18.3332 45.2962 18.3332 41.5462ZM27.1898 50.6072C27.1898 50.6073 27.1889 50.6083 27.1871 50.6096C27.1889 50.6078 27.1898 50.6071 27.1898 50.6072Z" stroke="black" stroke-miterlimit="10"/>
<path d="M32.0057 39.3751V35.0236H27.5957V39.3751H23.2123V43.7532H27.5957V48.1047H32.0057V43.7532H36.3891V39.3751H32.0057Z" fill="#EF9133"/>
<path fill-rule="evenodd" clip-rule="evenodd" d="M27.3588 34.8887H32.0424V39.2402H36.4258V43.888H32.0424V48.2395H27.3588V43.888H22.9774V39.2402H27.3588V34.8887ZM27.6305 35.1584V39.5099H23.249V43.6183H27.6305V47.9698H31.7708V43.6183H36.1541V39.5099H31.7708V35.1584H27.6305Z" fill="black" stroke="black" stroke-miterlimit="10"/>
</g>
<defs>
<clipPath id="clip0">
<rect width="64" height="82" fill="white" transform="translate(0.571045 0.998535)"/>
</clipPath>
</defs>
</svg>
