<svg width="76" height="74" viewBox="0 0 76 74" fill="none" xmlns="http://www.w3.org/2000/svg">
<path d="M50.2901 9.18176H21.8145H16.4594H10.7438C8.57622 9.18176 6.82036 10.9255 6.82036 13.0782V60.1028H45.0759C49.1423 60.1028 49.3599 62.5119 49.3599 66.5503L49.5114 70.2095C49.5754 71.7689 50.8683 72.9999 52.4385 72.9999H51.7025C53.8701 72.9999 54.2136 71.2562 54.2136 69.1035V13.0782C54.2136 10.9277 52.4556 9.18176 50.2901 9.18176Z" fill="#2F78CD"/>
<path d="M50.2191 9.18176H21.2461H15.7971H9.98119C7.77554 9.18176 5.98888 10.9255 5.98888 13.0782V60.1028H44.9156C49.0533 60.1028 49.2748 62.5119 49.2748 66.5503L49.4289 70.2095C49.494 71.7689 50.8096 72.9999 52.4074 72.9999H51.6584C53.8641 72.9999 54.2136 71.2562 54.2136 69.1035V13.0782C54.2114 10.9255 52.4248 9.18176 50.2191 9.18176Z" stroke="#232323" stroke-miterlimit="10"/>
<path d="M50.8878 73H6.56988L5.33919 72.3785C1.82014 70.6031 0.165523 66.7222 1.41352 63.1673L1.6947 62.3636H46.0126C44.3818 65.8619 45.7228 69.9492 49.1704 71.9858L50.8878 73Z" fill="white"/>
<path d="M19.2923 17.3636H36.7529" stroke="white" stroke-width="0.5" stroke-miterlimit="10"/>
<path d="M19.2923 19.8182H36.7529" stroke="white" stroke-width="0.5" stroke-miterlimit="10"/>
<path d="M19.2923 23.0909H41.7417" stroke="white" stroke-width="0.5" stroke-miterlimit="10"/>
<path d="M19.2923 26.3636H41.7417" stroke="white" stroke-width="0.5" stroke-miterlimit="10"/>
<path d="M19.2923 34.5454H48.3934" stroke="white" stroke-width="0.5" stroke-miterlimit="10"/>
<path d="M19.2923 37H48.3934" stroke="white" stroke-width="0.5" stroke-miterlimit="10"/>
<path d="M19.2923 40.2727H48.3934" stroke="white" stroke-width="0.5" stroke-miterlimit="10"/>
<path d="M19.2923 43.5454H48.3934" stroke="white" stroke-width="0.5" stroke-miterlimit="10"/>
<path d="M19.2923 48.4546H48.3934" stroke="white" stroke-width="0.5" stroke-miterlimit="10"/>
<path d="M19.2923 51.7273H48.3934" stroke="white" stroke-width="0.5" stroke-miterlimit="10"/>
<path d="M19.2923 55H48.3934" stroke="white" stroke-width="0.5" stroke-miterlimit="10"/>
<path d="M19.2923 57.4546H48.3934" stroke="white" stroke-width="0.5" stroke-miterlimit="10"/>
<path d="M57.9552 33.7273C67.3689 33.7273 75.0001 26.401 75.0001 17.3636C75.0001 8.32625 67.3689 1 57.9552 1C48.5415 1 40.9102 8.32625 40.9102 17.3636C40.9102 26.401 48.5415 33.7273 57.9552 33.7273Z" fill="#EF9133"/>
<path d="M45.899 17.3636H58.6092L67.517 9.18176" stroke="black" stroke-width="1.6559" stroke-miterlimit="10" stroke-linecap="round"/>
<path d="M15.135 33.7273H10.4833C9.93099 33.7273 9.48328 34.175 9.48328 34.7273V38.4546C9.48328 39.0069 9.93099 39.4546 10.4833 39.4546H15.135C15.6872 39.4546 16.135 39.0069 16.135 38.4546V34.7273C16.135 34.175 15.6872 33.7273 15.135 33.7273Z" stroke="white" stroke-miterlimit="10"/>
<path d="M15.135 47.6364H10.4833C9.93099 47.6364 9.48328 48.0841 9.48328 48.6364V53.1818C9.48328 53.7341 9.93099 54.1818 10.4833 54.1818H15.135C15.6872 54.1818 16.135 53.7341 16.135 53.1818V48.6364C16.135 48.0841 15.6872 47.6364 15.135 47.6364Z" stroke="white" stroke-miterlimit="10"/>
<path d="M15.135 17.3636H10.4833C9.93099 17.3636 9.48328 17.8114 9.48328 18.3636V22.0909C9.48328 22.6432 9.93099 23.0909 10.4833 23.0909H15.135C15.6872 23.0909 16.135 22.6432 16.135 22.0909V18.3636C16.135 17.8114 15.6872 17.3636 15.135 17.3636Z" stroke="white" stroke-miterlimit="10"/>
<path d="M50.0563 73H6.47705L5.26687 72.3785C1.80648 70.6031 0.179433 66.7222 1.40663 63.1673L1.68312 62.3636H45.2624C43.6587 65.8619 44.9774 69.9492 48.3676 71.9858L50.0563 73Z" stroke="#232323" stroke-miterlimit="10"/>
<path d="M57.9552 33.7273C67.3689 33.7273 75.0001 26.401 75.0001 17.3636C75.0001 8.32625 67.3689 1 57.9552 1C48.5415 1 40.9102 8.32625 40.9102 17.3636C40.9102 26.401 48.5415 33.7273 57.9552 33.7273Z" stroke="#232323" stroke-miterlimit="10"/>
</svg>
