<svg width="75" height="87" viewBox="0 0 75 87" fill="none" xmlns="http://www.w3.org/2000/svg">
<path d="M40.7097 39.5772C42.7517 39.5772 44.4072 37.8958 44.4072 35.8216C44.4072 33.7474 42.7517 32.0659 40.7097 32.0659C38.6676 32.0659 37.0121 33.7474 37.0121 35.8216C37.0121 37.8958 38.6676 39.5772 40.7097 39.5772Z" fill="white"/>
<path d="M14.0464 39.5772C16.0884 39.5772 17.7439 37.8958 17.7439 35.8216C17.7439 33.7474 16.0884 32.0659 14.0464 32.0659C12.0043 32.0659 10.3488 33.7474 10.3488 35.8216C10.3488 37.8958 12.0043 39.5772 14.0464 39.5772Z" fill="white"/>
<path d="M40.6771 39.6085C38.588 39.6085 36.8892 37.883 36.8892 35.761C36.8892 33.6391 38.588 31.9136 40.6771 31.9136C42.7663 31.9136 44.465 33.6391 44.465 35.761C44.465 37.883 42.7663 39.6085 40.6771 39.6085ZM40.6771 32.0953C38.6874 32.0953 37.07 33.74 37.07 35.7592C37.07 37.7784 38.6892 39.4231 40.6771 39.4231C42.6651 39.4231 44.2843 37.7784 44.2843 35.7592C44.2843 33.74 42.6669 32.0953 40.6771 32.0953Z" fill="#0C0C0C" stroke="black"/>
<path d="M14.0156 39.6085C11.9264 39.6085 10.2277 37.883 10.2277 35.761C10.2277 33.6391 11.9264 31.9136 14.0156 31.9136C16.1047 31.9136 17.8034 33.6391 17.8034 35.761C17.8034 37.883 16.1047 39.6085 14.0156 39.6085ZM14.0156 32.0953C12.0258 32.0953 10.4084 33.74 10.4084 35.7592C10.4084 37.7784 12.0276 39.4231 14.0156 39.4231C16.0035 39.4231 17.6227 37.7784 17.6227 35.7592C17.6227 33.74 16.0053 32.0953 14.0156 32.0953Z" fill="#0C0C0C" stroke="black"/>
<path d="M14.3788 27.5265V39.8123C14.3788 47.3677 19.701 53.495 26.2683 53.495H28.24C34.8055 53.495 40.1295 47.3695 40.1295 39.8123V27.5265H14.3788Z" fill="white"/>
<path d="M28.2094 53.5242H26.2377C19.6324 53.5242 14.2578 47.3455 14.2578 39.7497V27.3722H40.1875V39.7497C40.1875 47.3455 34.8147 53.5242 28.2094 53.5242ZM14.4385 27.5558V39.7497C14.4385 47.2427 19.7318 53.3406 26.2377 53.3406H28.2094C34.7153 53.3406 40.0086 47.2446 40.0086 39.7497V27.5558H14.4385Z" fill="#0C0C0C" stroke="black"/>
<path d="M54.0992 85.9047H1.09225V74.1971C1.09225 65.2191 8.25779 57.9427 17.095 57.9427H38.0947C46.9337 57.9427 54.0974 65.221 54.0974 74.1971V85.9047H54.0992Z" fill="#2F78CD"/>
<path d="M10.8186 85.9045H1.09225V78.3564H7.44455C9.30777 78.3564 10.8168 79.891 10.8168 81.7817V85.9045H10.8186Z" fill="white"/>
<path d="M44.4073 85.9045H54.1318V78.3564H47.7795C45.9163 78.3564 44.4073 79.891 44.4073 81.7817V85.9045Z" fill="white"/>
<path d="M54.1914 85.9999H1.00012V74.1969C1.00012 65.1822 8.22169 57.847 17.0968 57.847H38.0965C46.9717 57.847 54.1932 65.1822 54.1932 74.1969V85.9999H54.1914ZM1.18626 85.8108H54.0071V74.1969C54.0071 65.285 46.8704 58.0361 38.0965 58.0361H17.0968C8.32289 58.0361 1.18626 65.285 1.18626 74.1969V85.8108Z" fill="#0C0C0C" stroke="black"/>
<path d="M27.734 61.5589H27.322C25.3937 61.5589 23.8304 59.971 23.8304 58.0124V53.6529C23.8304 51.6943 25.3937 50.1064 27.322 50.1064H27.734C29.6623 50.1064 31.2255 51.6943 31.2255 53.6529V58.0124C31.2255 59.971 29.6623 61.5589 27.734 61.5589Z" fill="#EFD9AB"/>
<path d="M57.6593 6.8877H73.5482C73.8548 6.8877 74.1 6.6335 74.1 6.32696C74.1 6.01989 73.8543 5.76805 73.5482 5.76805H57.6593C56.3045 5.76805 55.1985 4.64864 55.1985 3.26699V1.4589C55.1985 1.15184 54.9528 0.9 54.6467 0.9C54.3406 0.9 54.0949 1.15184 54.0949 1.4589V3.26882C54.0949 5.26282 55.6924 6.8877 57.6593 6.8877Z" fill="#333333" stroke="black" stroke-width="0.2"/>
<path d="M72.9965 84.7922C72.9965 85.0993 73.2422 85.3511 73.5483 85.3511C73.8544 85.3511 74.1001 85.0993 74.1001 84.7922V1.4589C74.1001 1.15184 73.8544 0.9 73.5483 0.9C73.2422 0.9 72.9965 1.15184 72.9965 1.4589V84.7922Z" fill="#333333" stroke="black" stroke-width="0.2"/>
<path d="M64.9079 33.6532H56.4412C55.4325 33.6532 54.6009 32.8197 54.6009 31.776V16.8892C54.6009 15.8455 55.4325 15.0121 56.4412 15.0121H64.9079C65.9166 15.0121 66.7483 15.8455 66.7483 16.8892V31.7742C66.7483 32.82 65.9164 33.6532 64.9079 33.6532Z" fill="white" stroke="black"/>
<path d="M66.7466 23.5671V31.5776C66.7466 32.7296 65.8282 33.6512 64.7129 33.6512H56.6311C55.5158 33.6512 54.5974 32.7296 54.5974 31.5776V25.1666C54.6748 25.0858 54.7873 24.9729 54.9297 24.8421C55.2253 24.5707 55.6423 24.2294 56.134 23.9394C57.1297 23.3523 58.3172 23.0342 59.4538 23.7277L59.4541 23.7279C60.9985 24.6684 63.0502 24.5116 64.6112 24.1817C65.4087 24.0132 66.1152 23.7912 66.6218 23.6119C66.6649 23.5966 66.7065 23.5817 66.7466 23.5671Z" fill="#EF9133" stroke="black"/>
<path d="M53.701 81.5928C53.701 81.8998 53.9467 82.1517 54.2528 82.1517C58.483 82.1517 61.9105 78.4186 61.9105 73.8483V34.1531C61.9105 33.8461 61.6648 33.5942 61.3587 33.5942C61.0526 33.5942 60.8069 33.8461 60.8069 34.1531V73.8483C60.8069 77.8181 57.8578 81.0339 54.2528 81.0339C53.9467 81.0339 53.701 81.2857 53.701 81.5928Z" fill="#333333" stroke="black" stroke-width="0.2"/>
<path d="M60.122 14.5119C60.122 14.819 60.3677 15.0709 60.6737 15.0709C60.9798 15.0709 61.2255 14.819 61.2255 14.5119V6.32878C61.2255 6.02171 60.9798 5.76987 60.6737 5.76987C60.3677 5.76987 60.122 6.02171 60.122 6.32878V14.5119Z" fill="#333333" stroke="black" stroke-width="0.2"/>
<path d="M10.9108 86H1.00012V78.2648H7.44459C9.3548 78.2648 10.9108 79.8434 10.9108 81.7855V86ZM1.18626 85.811H10.7247V81.7836C10.7247 79.9462 9.2536 78.452 7.44459 78.452H1.18626V85.811Z" fill="#0C0C0C" stroke="black"/>
<path d="M54.2239 86H44.3132V81.7836C44.3132 79.8434 45.8674 78.2629 47.7794 78.2629H54.2239V86ZM44.4994 85.811H54.0378V78.452H47.7794C45.9704 78.452 44.4994 79.9462 44.4994 81.7836V85.811Z" fill="#0C0C0C" stroke="black"/>
<path d="M27.7342 61.6617H27.3221C25.3414 61.6617 23.7294 60.0243 23.7294 58.0124V53.6529C23.7294 51.641 25.3414 50.0037 27.3221 50.0037H27.7342C29.7149 50.0037 31.3269 51.641 31.3269 53.6529V58.0124C31.3269 60.0243 29.7149 61.6617 27.7342 61.6617ZM27.3221 50.2074C25.4517 50.2074 23.9318 51.753 23.9318 53.651V58.0106C23.9318 59.9105 25.4535 61.4542 27.3221 61.4542H27.7342C29.6046 61.4542 31.1245 59.9086 31.1245 58.0106V53.651C31.1245 51.7512 29.6028 50.2074 27.7342 50.2074H27.3221Z" fill="#0C0C0C" stroke="black"/>
<path d="M33.6905 30.9517L34.9881 31.8603C35.5682 32.266 36.2549 32.4826 36.9579 32.4826H41.635V27.6623C41.635 20.1069 35.6043 13.9796 28.1641 13.9796H25.9304C18.492 13.9796 12.4595 20.1051 12.4595 27.6623V32.4826H27.5894C28.5996 32.4826 29.5647 32.0641 30.2641 31.3225L32.3207 29.1436" fill="#494844"/>
<path d="M41.6351 32.758H36.9581C36.1955 32.758 35.4617 32.5267 34.8346 32.0862L33.5371 31.1776C33.4142 31.0913 33.3835 30.9206 33.4684 30.7939C33.5533 30.6691 33.7214 30.6379 33.8461 30.7242L35.1437 31.6328C35.6804 32.0091 36.3075 32.2073 36.9599 32.2073H41.3659V27.6624C41.3659 20.2703 35.4455 14.255 28.1661 14.255H25.9324C18.6548 14.255 12.7326 20.2685 12.7326 27.6624V32.2073H27.5914C28.5221 32.2073 29.4257 31.8164 30.0709 31.1335L32.1274 28.9546C32.2305 28.8445 32.4021 28.8408 32.5106 28.9473C32.619 29.0519 32.6226 29.2263 32.5178 29.3364L30.4612 31.5153C29.7148 32.3065 28.6685 32.7599 27.5914 32.7599H12.4615C12.3115 32.7599 12.1904 32.6369 12.1904 32.4845V27.6642C12.1904 19.9675 18.3548 13.7062 25.9324 13.7062H28.1661C35.7437 13.7062 41.908 19.9675 41.908 27.6642V32.4845C41.9062 32.635 41.7851 32.758 41.6351 32.758Z" fill="#0C0C0C" stroke="black"/>
<path d="M30.4954 52.7588H24.8317C21.2516 52.7588 18.3493 49.8108 18.3493 46.1745V45.7706C18.3493 42.3509 21.0799 39.5773 24.4467 39.5773H30.8786C34.2454 39.5773 36.9761 42.3509 36.9761 45.7706V46.1745C36.9779 49.8127 34.0755 52.7588 30.4954 52.7588Z" fill="#2F78CD"/>
<path d="M22.1172 38.6043C22.6841 38.6043 23.1437 37.8285 23.1437 36.8715C23.1437 35.9145 22.6841 35.1387 22.1172 35.1387C21.5503 35.1387 21.0907 35.9145 21.0907 36.8715C21.0907 37.8285 21.5503 38.6043 22.1172 38.6043Z" fill="#333333"/>
<path d="M33.3489 38.6043C33.9158 38.6043 34.3754 37.8285 34.3754 36.8715C34.3754 35.9145 33.9158 35.1387 33.3489 35.1387C32.782 35.1387 32.3224 35.9145 32.3224 36.8715C32.3224 37.8285 32.782 38.6043 33.3489 38.6043Z" fill="#333333"/>
<path d="M30.4954 52.9093H24.8316C21.1757 52.9093 18.2028 49.8897 18.2028 46.1763V45.7725C18.2028 42.2756 21.004 39.4304 24.4467 39.4304H30.8785C34.3212 39.4304 37.1224 42.2756 37.1224 45.7725V46.1763C37.1242 49.8879 34.1514 52.9093 30.4954 52.9093ZM24.4485 39.726C21.1666 39.726 18.4974 42.4372 18.4974 45.7706V46.1745C18.4974 49.7227 21.3401 52.6101 24.8334 52.6101H30.4972C33.9905 52.6101 36.8332 49.7227 36.8332 46.1745V45.7706C36.8332 42.4372 34.164 39.726 30.8821 39.726H24.4485Z" fill="#0C0C0C" stroke="black"/>
<path d="M14.4854 37.8075L14.2703 38.0093L18.892 43.0888L19.107 42.887L14.4854 37.8075Z" fill="#0C0C0C" stroke="black"/>
<path d="M40.0246 37.8015L35.7744 42.1185L35.9814 42.3288L40.2316 38.0118L40.0246 37.8015Z" fill="#0C0C0C" stroke="black"/>
</svg>
