<svg width="194" height="58" viewBox="0 0 194 58" fill="none" xmlns="http://www.w3.org/2000/svg">
<path d="M27.4035 41.4655C15.9987 41.4655 6.75116 32.4897 6.75116 21.4205C6.75116 10.3506 15.9994 1.37562 27.4035 1.37562C30.7705 1.37562 33.9491 2.15752 36.7578 3.54502C33.1356 1.30968 28.8677 0.0196533 24.2988 0.0196533C11.1768 0.0196533 0.539551 10.6567 0.539551 23.7784C0.539551 36.9002 11.1768 47.5372 24.2988 47.5372C37.4208 47.5372 48.058 36.9002 48.058 23.7784C48.058 23.362 48.0472 22.9485 48.0257 22.5379C47.4287 33.0874 38.4234 41.4655 27.4035 41.4655Z" fill="white"/>
<path d="M27.3727 2.6377C17.8643 2.6377 9.96917 9.40247 8.44189 18.2822C10.5547 10.542 17.7719 4.84006 26.3478 4.84006C36.5808 4.84006 44.8809 12.9579 44.8809 22.9714C44.8809 28.6433 42.2169 33.7074 38.0472 37.0321C43.1873 33.6622 46.5709 27.9273 46.5709 21.4198C46.5709 11.0473 37.9741 2.6377 27.3727 2.6377Z" fill="white"/>
<path d="M23.7125 34.2169C23.7125 36.2322 22.0419 37.867 19.9814 37.867C17.9216 37.867 16.2502 36.2322 16.2502 34.2169C16.2502 32.2009 17.9216 30.5661 19.9814 30.5661C22.0419 30.5661 23.7125 32.2009 23.7125 34.2169Z" fill="white"/>
<path d="M103.412 43.2636V28.0398C103.412 26.1793 103.882 24.4708 104.823 22.9141C105.764 21.3582 107.057 20.1148 108.703 19.1845C110.348 18.2542 112.179 17.7554 114.197 17.6873C115.584 17.6873 117.112 18.0514 118.779 18.7789C120.447 19.5063 121.877 20.6817 123.07 22.3057C124.264 23.9297 124.861 25.9765 124.861 28.4462V43.2643H120.287V28.5508C120.287 27.4357 120.033 26.3872 119.526 25.4053C119.019 24.4249 118.299 23.6344 117.369 23.0331C116.438 22.4332 115.381 22.1071 114.197 22.057C113.097 22.057 112.078 22.3365 111.139 22.8941C110.2 23.4524 109.46 24.2006 108.918 25.1387C108.377 26.0768 108.106 27.0795 108.106 28.1445V43.2622H103.412V43.2636Z" fill="white"/>
<path d="M133.424 31.5215C133.528 37.7043 137.477 40.25 142.049 40.25C145.322 40.25 147.296 39.6788 149.011 38.9513L149.79 42.2244C148.18 42.9519 145.426 43.7832 141.425 43.7832C133.683 43.7832 129.059 38.6912 129.059 31.1058C129.059 23.5197 133.528 17.5447 140.854 17.5447C149.063 17.5447 151.245 24.7667 151.245 29.3908C151.245 30.326 151.141 31.0535 151.09 31.5208H133.424V31.5215ZM146.829 28.2477C146.88 25.3379 145.634 20.8178 140.49 20.8178C135.866 20.8178 133.839 25.0785 133.475 28.2477H146.829Z" fill="white"/>
<path d="M186.992 10.8946V18.1166H193.539V21.5976H186.992V35.1587C186.992 38.2762 187.875 40.0429 190.421 40.0429C191.616 40.0429 192.5 39.8873 193.071 39.7311L193.279 43.1604C192.396 43.5238 190.992 43.7839 189.226 43.7839C187.096 43.7839 185.381 43.1088 184.29 41.8618C182.991 40.5109 182.523 38.2769 182.523 35.3149V21.5976H178.626V18.1166H182.523V12.0893L186.992 10.8946Z" fill="white"/>
<path d="M51.6724 43.3969V26.2574C51.706 24.8205 52.1067 23.4609 52.8757 22.1759C53.644 20.8916 54.7377 19.8646 56.156 19.0956C57.5744 18.3266 59.1955 17.9417 61.0202 17.9417C62.6751 17.9926 64.0519 18.3632 65.1491 19.0512C66.2471 19.7399 67.1501 20.5598 67.8597 21.5115C68.5706 20.4745 69.5726 19.6209 70.8669 18.9494C72.1613 18.2779 73.6714 17.9417 75.3979 17.9417C76.9538 17.9417 78.4009 18.318 79.7375 19.0705C81.0741 19.823 82.1399 20.8407 82.9354 22.125C83.7309 23.41 84.1287 24.7875 84.1287 26.2574V43.3969H79.5555V27.6707C79.5555 26.8437 79.4157 26.0381 79.1376 25.2526C78.8588 24.4671 78.3815 23.792 77.7057 23.2266C77.0305 22.6611 76.1605 22.3694 75.0969 22.3529C73.3403 22.3529 72.0853 22.8718 71.3342 23.9103C70.5824 24.9488 70.2069 26.2022 70.2069 27.6707V43.3969H65.5125V27.9997C65.5125 26.9024 65.3434 25.9191 65.0058 25.0498C64.6682 24.1805 64.1529 23.5132 63.4613 23.0488C62.7697 22.5844 61.9168 22.3522 60.9041 22.3522C59.0472 22.4031 57.8066 22.9729 57.1816 24.0615C56.5567 25.1501 56.2449 26.5642 56.2449 28.3036V43.3969H51.6724Z" fill="white"/>
<path d="M91.1624 12.7537C91.2132 12.0098 91.5049 11.3805 92.0389 10.8645C92.5721 10.3485 93.2021 10.0905 93.931 10.0905C94.6591 10.0905 95.2891 10.3571 95.823 10.8896C96.357 11.4221 96.6236 12.0771 96.6236 12.8547C96.6236 13.413 96.5089 13.8997 96.2803 14.3132C96.0517 14.7274 95.7342 15.0442 95.3278 15.2642C94.9214 15.4842 94.4893 15.5939 94.0327 15.5939C93.2537 15.5939 92.58 15.3323 92.0131 14.8077C91.4454 14.2838 91.1624 13.5994 91.1624 12.7537ZM91.5931 43.3969V18.4678H96.1663V43.3969H91.5931Z" fill="white"/>
<path d="M95.8675 12.7522C95.8675 13.8308 94.9938 14.7052 93.9159 14.7052C92.8373 14.7052 91.9636 13.8308 91.9636 12.7522C91.9636 11.6736 92.8373 10.8007 93.9159 10.8007C94.9938 10.8007 95.8675 11.6744 95.8675 12.7522Z" fill="white"/>
<path d="M92.4251 50.075L90.8047 56.9215H89.4071L88.8194 54.0189C88.6682 53.3065 88.5614 52.6121 88.4725 51.8373H88.4546C88.3392 52.6121 88.2145 53.2972 88.0454 54.0189L87.3774 56.9215H85.9885L84.4841 50.075H85.8817L86.407 53.0306C86.5496 53.8498 86.6829 54.6955 86.7811 55.4258H86.8077C86.9058 54.6603 87.075 53.8677 87.2527 53.0127L87.8762 50.0743H89.1763L89.7554 53.0478C89.9066 53.849 90.0407 54.6059 90.1295 55.4071H90.1561C90.2628 54.5973 90.3961 53.8225 90.5388 53.0034L91.0999 50.0743H92.4251V50.075Z" fill="white"/>
<path d="M96.886 56.7258C96.4767 56.9036 95.8976 57.0111 95.2834 57.0111C93.7519 57.0111 92.8796 56.0493 92.8796 54.5091C92.8796 53.0843 93.6988 51.856 95.1501 51.856C96.352 51.856 97.1354 52.711 97.1354 54.3135C97.1354 54.5091 97.1268 54.6962 97.0995 54.8388H94.1346C94.1704 55.6845 94.7753 56.0228 95.4877 56.0228C95.9772 56.0228 96.3599 55.9339 96.6989 55.8178L96.886 56.7258ZM95.9156 53.9214C95.9242 53.4047 95.7199 52.7726 95.0699 52.7726C94.4377 52.7726 94.1704 53.4312 94.1353 53.9214H95.9156Z" fill="white"/>
<path d="M104.418 56.753C104.16 56.8777 103.608 57.011 102.904 57.011C100.847 57.011 99.7075 55.6135 99.7075 53.5831C99.7075 51.188 101.248 49.9775 103.064 49.9775C103.803 49.9775 104.284 50.1287 104.479 50.2355L104.221 51.3041C103.954 51.188 103.598 51.0812 103.126 51.0812C101.995 51.0812 101.087 51.8559 101.087 53.5115C101.087 55.0609 101.88 55.8887 103.117 55.8887C103.526 55.8887 103.963 55.8084 104.23 55.6931L104.418 56.753Z" fill="white"/>
<path d="M108.015 53.1381C107.916 53.1202 107.81 53.1116 107.676 53.1116C107.08 53.1116 106.626 53.5122 106.626 54.3579V56.9222H105.308V53.5122C105.308 52.898 105.29 52.4085 105.272 51.9627H106.403L106.457 52.8263H106.492C106.724 52.1856 107.258 51.856 107.721 51.856C107.846 51.856 107.926 51.8646 108.015 51.8825V53.1381Z" fill="white"/>
<path d="M112.484 56.7258C112.075 56.9036 111.496 57.0111 110.882 57.0111C109.35 57.0111 108.478 56.0493 108.478 54.5091C108.478 53.0843 109.297 51.856 110.748 51.856C111.95 51.856 112.734 52.711 112.734 54.3135C112.734 54.5091 112.725 54.6962 112.698 54.8388H109.733C109.769 55.6845 110.373 56.0228 111.086 56.0228C111.575 56.0228 111.958 55.9339 112.297 55.8178L112.484 56.7258ZM111.514 53.9214C111.522 53.4047 111.318 52.7726 110.668 52.7726C110.036 52.7726 109.769 53.4312 109.733 53.9214H111.514Z" fill="white"/>
<path d="M117.355 55.7468C117.355 56.1833 117.373 56.619 117.426 56.9222H116.242L116.161 56.4055H116.135C115.85 56.7975 115.37 57.0197 114.817 57.0197C113.9 57.0197 113.33 56.3338 113.33 55.5325C113.33 54.2597 114.461 53.6627 116.037 53.6627C116.037 53.1732 115.868 52.7991 115.147 52.7991C114.692 52.7991 114.247 52.9417 113.927 53.1374L113.677 52.2824C114.007 52.0867 114.621 51.8638 115.396 51.8638C116.936 51.8638 117.355 52.8435 117.355 53.9293V55.7468ZM116.073 54.5091C115.36 54.5091 114.621 54.6782 114.621 55.3992C114.621 55.8708 114.915 56.0758 115.245 56.0758C115.557 56.0758 116.073 55.8529 116.073 55.2208V54.5091Z" fill="white"/>
<path d="M118.743 51.0547L120.043 50.672V51.9627H121.138V52.9331H120.043V55.0875C120.043 55.6837 120.23 55.9331 120.631 55.9331C120.818 55.9331 120.925 55.9152 121.058 55.8887L121.076 56.8949C120.898 56.9659 120.577 57.011 120.194 57.011C118.77 57.011 118.743 55.7733 118.743 55.2215V52.9331H118.093V51.9627H118.743V51.0547Z" fill="white"/>
<path d="M125.697 56.7258C125.288 56.9036 124.709 57.0111 124.094 57.0111C122.563 57.0111 121.691 56.0493 121.691 54.5091C121.691 53.0843 122.51 51.856 123.961 51.856C125.163 51.856 125.946 52.711 125.946 54.3135C125.946 54.5091 125.938 54.6962 125.911 54.8388H122.946C122.981 55.6845 123.586 56.0228 124.299 56.0228C124.788 56.0228 125.171 55.9339 125.51 55.8178L125.697 56.7258ZM124.727 53.9214C124.735 53.4047 124.531 52.7726 123.881 52.7726C123.249 52.7726 122.981 53.4312 122.946 53.9214H124.727Z" fill="white"/>
<path d="M132.997 51.2152H131.306V56.9222H129.988V51.2152H128.305V50.0757H132.997V51.2152Z" fill="white"/>
<path d="M137.939 56.9222H136.621V54.064C136.621 53.4319 136.425 52.9424 135.856 52.9424C135.526 52.9424 135.018 53.1739 135.018 53.9128V56.9222H133.7V49.7639H135.018V52.5597H135.036C135.393 52.043 135.936 51.8567 136.363 51.8567C137.244 51.8567 137.939 52.4974 137.939 53.958V56.9222Z" fill="white"/>
<path d="M142.853 56.7258C142.444 56.9036 141.865 57.0111 141.251 57.0111C139.719 57.0111 138.847 56.0493 138.847 54.5091C138.847 53.0843 139.666 51.856 141.118 51.856C142.32 51.856 143.103 52.711 143.103 54.3135C143.103 54.5091 143.094 54.6962 143.067 54.8388H140.102C140.138 55.6845 140.743 56.0228 141.455 56.0228C141.945 56.0228 142.327 55.9339 142.666 55.8178L142.853 56.7258ZM141.883 53.9214C141.892 53.4047 141.687 52.7726 141.037 52.7726C140.405 52.7726 140.138 53.4312 140.103 53.9214H141.883Z" fill="white"/>
<path d="M151 56.9222H149.682L148.213 54.0913C147.848 53.3882 147.448 52.5418 147.162 51.7943H147.126C147.18 52.64 147.207 53.6018 147.207 54.8216V56.9229H146.013V50.0764H147.438L148.881 52.8543C149.246 53.5402 149.628 54.3765 149.905 55.0889H149.923C149.843 54.2167 149.807 53.2456 149.807 52.1333V50.0764H151V56.9222Z" fill="white"/>
<path d="M156.013 56.7258C155.603 56.9036 155.024 57.0111 154.41 57.0111C152.879 57.0111 152.006 56.0493 152.006 54.5091C152.006 53.0843 152.826 51.856 154.277 51.856C155.479 51.856 156.262 52.711 156.262 54.3135C156.262 54.5091 156.254 54.6962 156.226 54.8388H153.261C153.297 55.6845 153.902 56.0228 154.614 56.0228C155.104 56.0228 155.487 55.9339 155.826 55.8178L156.013 56.7258ZM155.042 53.9214C155.051 53.4047 154.847 52.7726 154.197 52.7726C153.564 52.7726 153.297 53.4312 153.262 53.9214H155.042Z" fill="white"/>
<path d="M161.212 51.9627L159.735 54.3579L161.23 56.9222H159.752L159.263 55.9604C159.13 55.7024 159.014 55.4437 158.889 55.1771H158.871C158.756 55.4444 158.631 55.7024 158.506 55.9604L158.043 56.9222H156.636L158.141 54.4116L156.671 51.9635H158.131L158.603 52.8629C158.745 53.1388 158.861 53.3968 158.986 53.6462H159.003C159.128 53.3789 159.244 53.1123 159.368 52.8536L159.813 51.9635H161.212V51.9627Z" fill="white"/>
<path d="M162.102 51.0547L163.403 50.672V51.9627H164.498V52.9331H163.403V55.0875C163.403 55.6837 163.59 55.9331 163.99 55.9331C164.177 55.9331 164.284 55.9152 164.417 55.8887L164.435 56.8949C164.258 56.9659 163.936 57.011 163.554 57.011C162.129 57.011 162.102 55.7733 162.102 55.2215V52.9331H161.452V51.9627H162.102V51.0547Z" fill="white"/>
<path d="M172.287 50.075L170.204 56.9215H168.7L166.714 50.075H168.157L168.932 53.1023C169.137 53.9128 169.341 54.7313 169.484 55.5598H169.51C169.661 54.7406 169.866 53.9035 170.08 53.1023L170.873 50.075H172.287Z" fill="white"/>
<path d="M176.535 55.7468C176.535 56.1833 176.552 56.619 176.605 56.9222H175.421L175.341 56.4055H175.315C175.029 56.7975 174.549 57.0197 173.997 57.0197C173.079 57.0197 172.51 56.3338 172.51 55.5325C172.51 54.2597 173.64 53.6627 175.216 53.6627C175.216 53.1732 175.047 52.7991 174.326 52.7991C173.872 52.7991 173.427 52.9417 173.107 53.1374L172.857 52.2824C173.187 52.0867 173.801 51.8638 174.576 51.8638C176.116 51.8638 176.535 52.8435 176.535 53.9293V55.7468ZM175.252 54.5091C174.54 54.5091 173.801 54.6782 173.801 55.3992C173.801 55.8708 174.095 56.0758 174.425 56.0758C174.736 56.0758 175.252 55.8529 175.252 55.2208V54.5091Z" fill="white"/>
<path d="M179.027 56.9222H177.709V49.7639H179.027V56.9222Z" fill="white"/>
<path d="M184.396 55.4085C184.396 55.9962 184.423 56.5036 184.44 56.9221H183.292L183.229 56.2635H183.203C182.998 56.5839 182.544 57.0203 181.778 57.0203C180.834 57.0203 180.193 56.4061 180.193 54.919V51.9634H181.511V54.7234C181.511 55.4709 181.725 55.9431 182.268 55.9431C182.695 55.9431 183.078 55.5784 183.078 55.0172V51.9634H184.396V55.4085Z" fill="white"/>
<path d="M189.328 56.7258C188.919 56.9036 188.34 57.0111 187.726 57.0111C186.194 57.0111 185.322 56.0493 185.322 54.5091C185.322 53.0843 186.141 51.856 187.593 51.856C188.794 51.856 189.578 52.711 189.578 54.3135C189.578 54.5091 189.569 54.6962 189.542 54.8388H186.577C186.613 55.6845 187.218 56.0228 187.93 56.0228C188.42 56.0228 188.802 55.9339 189.141 55.8178L189.328 56.7258ZM188.358 53.9214C188.367 53.4047 188.162 52.7726 187.512 52.7726C186.88 52.7726 186.613 53.4312 186.578 53.9214H188.358Z" fill="white"/>
<path d="M193.104 53.0578C192.89 52.9417 192.543 52.7998 192.169 52.7998C191.769 52.7998 191.555 53.0048 191.555 53.2714C191.555 53.5473 191.742 53.6899 192.312 53.93C193.149 54.2769 193.54 54.7578 193.54 55.4437C193.54 56.3875 192.828 57.0103 191.59 57.0103C191.047 57.0103 190.522 56.877 190.193 56.6807L190.442 55.7282C190.7 55.8794 191.19 56.0579 191.6 56.0579C192.063 56.0579 192.285 55.8622 192.285 55.559C192.285 55.2559 192.116 55.0961 191.573 54.8646C190.647 54.4905 190.309 53.9651 190.309 53.4219C190.309 52.5318 191.021 51.8552 192.125 51.8552C192.632 51.8552 193.069 51.9799 193.353 52.1311L193.104 53.0578Z" fill="white"/>
<path d="M162.052 37.6004C162.344 37.1303 162.631 36.6752 162.913 36.2258H158.277L156.651 38.5593H161.437L162.052 37.6004Z" fill="white"/>
<path d="M155.027 40.8928L153.375 43.2636H158.416L159.938 40.8928H155.027Z" fill="white"/>
<path d="M167.56 30.2745L176.133 18.1166H171.197L167.664 23.4681C166.833 24.8191 166.001 26.1177 165.17 27.6249H165.014C164.183 26.2223 163.404 24.923 162.469 23.5204L158.884 18.1166H153.792L162.313 30.4307L159.902 33.8923H164.331C164.456 33.6766 164.579 33.458 164.702 33.2365H164.806C165.689 34.743 166.52 36.1462 167.508 37.6011L171.197 43.2643H176.393L167.56 30.2745Z" fill="white"/>
</svg>
