<svg width="107" height="133" viewBox="0 0 107 133" fill="none" xmlns="http://www.w3.org/2000/svg">
<path d="M32.8263 21.3947C34.4667 21.3947 35.7966 20.0551 35.7966 18.4025C35.7966 16.75 34.4667 15.4103 32.8263 15.4103C31.1858 15.4103 29.8559 16.75 29.8559 18.4025C29.8559 20.0551 31.1858 21.3947 32.8263 21.3947Z" fill="white"/>
<path d="M11.4081 21.3947C13.0486 21.3947 14.3785 20.0551 14.3785 18.4025C14.3785 16.75 13.0486 15.4103 11.4081 15.4103C9.76764 15.4103 8.43777 16.75 8.43777 18.4025C8.43777 20.0551 9.76764 21.3947 11.4081 21.3947Z" fill="white"/>
<path d="M32.8263 21.3947C34.4667 21.3947 35.7966 20.0551 35.7966 18.4025C35.7966 16.75 34.4667 15.4103 32.8263 15.4103C31.1858 15.4103 29.8559 16.75 29.8559 18.4025C29.8559 20.0551 31.1858 21.3947 32.8263 21.3947Z" stroke="black" stroke-width="0.5" stroke-miterlimit="10"/>
<path d="M11.4081 21.3947C13.0486 21.3947 14.3785 20.0551 14.3785 18.4025C14.3785 16.75 13.0486 15.4103 11.4081 15.4103C9.76764 15.4103 8.43777 16.75 8.43777 18.4025C8.43777 20.0551 9.76764 21.3947 11.4081 21.3947Z" stroke="black" stroke-width="0.5" stroke-miterlimit="10"/>
<path d="M46.1518 116.358C69.0236 116.358 87.5649 97.6802 87.5649 74.64C87.5649 51.5998 69.0236 32.9221 46.1518 32.9221C23.2799 32.9221 4.73862 51.5998 4.73862 74.64C4.73862 97.6802 23.2799 116.358 46.1518 116.358Z" stroke="#232323" stroke-width="0.5" stroke-miterlimit="10" stroke-dasharray="3 3"/>
<path d="M98.5567 30.7013C98.2425 25.7675 94.1738 21.863 89.1968 21.863C88.1856 21.863 87.2113 22.0252 86.2977 22.3258C83.8898 19.3096 80.1986 17.3787 76.056 17.3787C68.7978 17.3787 62.9152 23.3046 62.9152 30.6162C62.9152 30.7305 62.9205 30.8449 62.9231 30.9593C57.6636 31.0976 53.4418 35.433 53.4418 40.7631C53.4418 46.181 57.8009 50.5722 63.1792 50.5722C67.6572 50.5722 71.4275 47.5241 72.5655 43.3776C73.6771 43.6861 74.8441 43.8537 76.0534 43.8537C79.4778 43.8537 82.596 42.5318 84.9353 40.3721C84.9301 40.5024 84.9248 40.6327 84.9248 40.7631C84.9248 46.5906 89.614 51.3116 95.3962 51.3116C101.178 51.3116 105.868 46.5879 105.868 40.7631C105.876 36.0447 102.8 32.0524 98.5567 30.7013Z" fill="#2F78CD"/>
<path d="M66.8278 31.3928C66.8278 25.6451 71.1949 20.9268 76.7686 20.4188" stroke="#231F20" stroke-width="0.5" stroke-miterlimit="10"/>
<path d="M63.8948 46.556C60.209 46.5054 57.2202 43.6196 56.9429 39.9891" stroke="#231F20" stroke-width="0.5" stroke-miterlimit="10"/>
<path d="M101.165 35.6936C103.737 38.356 103.824 42.5238 101.469 45.2899" stroke="#231F20" stroke-width="0.5" stroke-miterlimit="10"/>
<path d="M98.689 30.43C98.3748 25.4962 94.3061 21.5917 89.3291 21.5917C88.3179 21.5917 87.3436 21.754 86.4301 22.0545C84.0221 19.0384 80.331 17.1074 76.1883 17.1074C68.9301 17.1074 63.0475 23.0333 63.0475 30.3449C63.0475 30.4593 63.0528 30.5737 63.0555 30.688C57.796 30.8263 53.5741 35.1617 53.5741 40.4918C53.5741 45.9097 57.9333 50.3009 63.3116 50.3009C67.7895 50.3009 71.5599 47.2529 72.6978 43.1063C73.8094 43.4149 74.9764 43.5824 76.1857 43.5824C79.6102 43.5824 82.7284 42.2605 85.0677 40.1008C85.0624 40.2312 85.0571 40.3615 85.0571 40.4918C85.0571 46.3193 89.7463 51.0403 95.5286 51.0403C101.311 51.0403 106 46.3166 106 40.4918C106.005 35.7708 102.932 31.7785 98.689 30.43Z" stroke="#231F20" stroke-width="0.5" stroke-miterlimit="10"/>
<path d="M75.409 123.752H14.7771C11.7091 123.752 9.22458 121.247 9.22458 118.159V79.1509C9.22458 76.0603 11.7117 73.5575 14.7771 73.5575H75.409C78.4771 73.5575 80.9616 76.063 80.9616 79.1509V118.156C80.9616 121.247 78.4744 123.752 75.409 123.752Z" fill="#2F78CD"/>
<path d="M43.5854 58.3066H1V48.9789C1 41.8269 6.75586 36.0286 13.8556 36.0286H30.7245C37.8243 36.0286 43.5802 41.8269 43.5802 48.9789V58.3066H43.5854Z" fill="#EF9133"/>
<path d="M36.3193 37.3133C40.6177 39.4092 43.5828 43.8456 43.5828 48.9789V58.3066H1V48.9789C1 41.8269 6.75586 36.0286 13.8556 36.0286H30.7245C31.44 36.0286 32.1397 36.0871 32.8236 36.2015" stroke="black" stroke-width="0.5" stroke-miterlimit="10"/>
<path d="M22.4024 38.9092H22.0724C20.5225 38.9092 19.2657 37.6432 19.2657 36.0819V32.6083C19.2657 31.047 20.5225 29.781 22.0724 29.781H22.4024C23.9523 29.781 25.2091 31.047 25.2091 32.6083V36.0819C25.2091 37.6432 23.9523 38.9092 22.4024 38.9092Z" fill="white"/>
<path d="M22.4024 38.9092H22.0724C20.5225 38.9092 19.2657 37.6432 19.2657 36.0819V32.6083C19.2657 31.047 20.5225 29.781 22.0724 29.781H22.4024C23.9523 29.781 25.2091 31.047 25.2091 32.6083V36.0819C25.2091 37.6432 23.9523 38.9092 22.4024 38.9092Z" stroke="black" stroke-width="0.5" stroke-miterlimit="10"/>
<path d="M11.6749 11.7931V21.5809C11.6749 27.6026 15.9522 32.4832 21.2249 32.4832H22.8091C28.0844 32.4832 32.3591 27.6026 32.3591 21.5809V11.7931H11.6749Z" fill="white"/>
<path d="M11.6749 11.7931V21.5809C11.6749 27.6026 15.9522 32.4832 21.2249 32.4832H22.8091C28.0844 32.4832 32.3591 27.6026 32.3591 21.5809V11.7931H11.6749Z" stroke="black" stroke-width="0.5" stroke-miterlimit="10"/>
<path d="M77.5055 118.246H13.3066L13.0108 79.3265C13.0003 77.9169 14.1303 76.7705 15.5297 76.7705H74.6936C76.0771 76.7705 77.2019 77.8956 77.2124 79.2866L77.5055 118.246Z" fill="white"/>
<path d="M75.4091 123.936H14.7771C11.7091 123.936 9.22458 121.43 9.22458 118.342V79.3371C9.22458 76.2465 11.7117 73.7437 14.7771 73.7437H75.4091C78.4771 73.7437 80.9616 76.2491 80.9616 79.3371V118.342C80.9616 121.433 78.4744 123.936 75.4091 123.936Z" stroke="#232323" stroke-width="0.5" stroke-miterlimit="10"/>
<path d="M77.5055 118.393H13.3066L13.0108 79.4729C13.0003 78.0633 14.1303 76.9169 15.5297 76.9169H74.6936C76.0771 76.9169 77.2019 78.042 77.2124 79.433L77.5055 118.393Z" stroke="#232323" stroke-width="0.5" stroke-miterlimit="10"/>
<path d="M43.8918 83.5875H19.2947V100.251H43.8918V83.5875Z" fill="#2F78CD"/>
<path d="M71.1316 83.5875H49.7372V100.251H71.1316V83.5875Z" fill="#2F78CD"/>
<path d="M18.2282 105.49H43.8919" stroke="#232323" stroke-width="0.5" stroke-miterlimit="10"/>
<path d="M18.2282 109.39H43.8919" stroke="#232323" stroke-width="0.5" stroke-miterlimit="10"/>
<path d="M18.7612 113.286H44.4249" stroke="#232323" stroke-width="0.5" stroke-miterlimit="10"/>
<path d="M49.7108 105.49H71.158" stroke="#232323" stroke-width="0.5" stroke-miterlimit="10"/>
<path d="M49.7108 109.39H71.158" stroke="#232323" stroke-width="0.5" stroke-miterlimit="10"/>
<path d="M50.1571 113.286H71.6043" stroke="#232323" stroke-width="0.5" stroke-miterlimit="10"/>
<path d="M64.552 58.0885H71.1052V45.9255" stroke="#232323" stroke-width="0.5" stroke-miterlimit="10"/>
<path d="M76.6606 52.0058V65.5625H69.7562" stroke="#232323" stroke-width="0.5" stroke-miterlimit="10"/>
<path d="M82.963 51.0402V63.5463H92.3572" stroke="#232323" stroke-width="0.5" stroke-miterlimit="10"/>
<path d="M88.1588 45.4308V56.115H95.6519" stroke="#232323" stroke-width="0.5" stroke-miterlimit="10"/>
<path d="M38.7405 123.936V132" stroke="#231F20" stroke-width="0.5" stroke-miterlimit="10"/>
<path d="M33.037 132H57.1482" stroke="#231F20" stroke-width="0.5" stroke-miterlimit="10"/>
<path d="M51.4455 123.936V132" stroke="#231F20" stroke-width="0.5" stroke-miterlimit="10"/>
<path d="M29.8559 68.379H12.0919V44.5132H23.8307L29.8559 52.0057V68.379Z" fill="white"/>
<path d="M29.8559 68.379H12.0919V44.5132H23.8307L29.8559 52.0057V68.379Z" stroke="#231F20" stroke-width="0.5" stroke-miterlimit="10"/>
<path d="M23.8309 44.5132V52.0057H29.856L23.8309 44.5132Z" fill="#2F78CD"/>
<path d="M23.8309 44.5132V52.0057H29.856L23.8309 44.5132Z" stroke="#231F20" stroke-width="0.5" stroke-miterlimit="10"/>
<path d="M79.8688 55.5751C86.5167 55.5751 91.9059 50.1462 91.9059 43.4493C91.9059 36.7525 86.5167 31.3236 79.8688 31.3236C73.2209 31.3236 67.8317 36.7525 67.8317 43.4493C67.8317 50.1462 73.2209 55.5751 79.8688 55.5751Z" fill="white"/>
<path d="M79.8688 55.6442C86.5167 55.6442 91.9059 50.2153 91.9059 43.5184C91.9059 36.8216 86.5167 31.3927 79.8688 31.3927C73.2209 31.3927 67.8317 36.8216 67.8317 43.5184C67.8317 50.2153 73.2209 55.6442 79.8688 55.6442Z" stroke="#231F20" stroke-width="0.5" stroke-miterlimit="10"/>
<path d="M87.6604 44.5665L87.3092 41.5131H85.16L83.9983 39.8082L84.4207 36.933L82.3058 36.0447L80.4735 37.8187H78.5012L76.5289 36.4702L74.3427 37.8187L75.5414 40.2338L74.4853 42.0078L71.9479 42.6967V45.3431L74.7678 45.6277L75.8952 47.3087L74.979 49.745L77.6563 51.3062L79.3487 49.0348L81.0042 48.8939L83.0134 50.9525L85.1626 49.1785L84.2121 47.0746L85.1626 45.274L87.6604 44.5665ZM79.6603 46.2527C78.2002 46.2527 77.0173 45.0612 77.0173 43.5904C77.0173 42.1195 78.2002 40.928 79.6603 40.928C81.1203 40.928 82.3032 42.1195 82.3032 43.5904C82.3032 45.0612 81.1203 46.2527 79.6603 46.2527Z" fill="#2F78CD"/>
<path d="M87.6604 44.5744L87.3092 41.521H85.16L83.9983 39.8161L84.4207 36.941L82.3058 36.0526L80.4735 37.8267H78.5012L76.5289 36.4782L74.3427 37.8267L75.5414 40.2417L74.4853 42.0157L71.9479 42.7046V45.351L74.7678 45.6356L75.8952 47.3166L74.979 49.7529L77.6563 51.3142L79.3487 49.0428L81.0042 48.9018L83.0134 50.9604L85.1626 49.1864L84.2121 47.0825L85.1626 45.2819L87.6604 44.5744ZM79.6603 46.2607C78.2002 46.2607 77.0173 45.0691 77.0173 43.5983C77.0173 42.1274 78.2002 40.9359 79.6603 40.9359C81.1203 40.9359 82.3032 42.1274 82.3032 43.5983C82.3032 45.0691 81.1203 46.2607 79.6603 46.2607Z" stroke="#122436" stroke-width="0.5" stroke-miterlimit="10"/>
<path d="M63.1791 60.9557C64.7219 60.9557 65.9725 59.6958 65.9725 58.1417C65.9725 56.5876 64.7219 55.3277 63.1791 55.3277C61.6363 55.3277 60.3857 56.5876 60.3857 58.1417C60.3857 59.6958 61.6363 60.9557 63.1791 60.9557Z" fill="#EF9133"/>
<path d="M69.0483 68.4295C70.5911 68.4295 71.8417 67.1696 71.8417 65.6155C71.8417 64.0614 70.5911 62.8015 69.0483 62.8015C67.5055 62.8015 66.2549 64.0614 66.2549 65.6155C66.2549 67.1696 67.5055 68.4295 69.0483 68.4295Z" fill="#EF9133"/>
<path d="M95.1034 58.961C96.6461 58.961 97.8968 57.7011 97.8968 56.147C97.8968 54.5929 96.6461 53.333 95.1034 53.333C93.5606 53.333 92.3099 54.5929 92.3099 56.147C92.3099 57.7011 93.5606 58.961 95.1034 58.961Z" fill="#EF9133"/>
<path d="M91.1953 66.4135C92.7381 66.4135 93.9887 65.1537 93.9887 63.5995C93.9887 62.0454 92.7381 60.7855 91.1953 60.7855C89.6525 60.7855 88.4019 62.0454 88.4019 63.5995C88.4019 65.1537 89.6525 66.4135 91.1953 66.4135Z" fill="#EF9133"/>
<path d="M63.1791 60.9557C64.7219 60.9557 65.9725 59.6958 65.9725 58.1417C65.9725 56.5876 64.7219 55.3277 63.1791 55.3277C61.6363 55.3277 60.3857 56.5876 60.3857 58.1417C60.3857 59.6958 61.6363 60.9557 63.1791 60.9557Z" stroke="#231F20" stroke-width="0.5" stroke-miterlimit="10"/>
<path d="M69.0483 68.4295C70.5911 68.4295 71.8417 67.1696 71.8417 65.6155C71.8417 64.0614 70.5911 62.8015 69.0483 62.8015C67.5055 62.8015 66.2549 64.0614 66.2549 65.6155C66.2549 67.1696 67.5055 68.4295 69.0483 68.4295Z" stroke="#231F20" stroke-width="0.5" stroke-miterlimit="10"/>
<path d="M95.1034 58.961C96.6461 58.961 97.8968 57.7011 97.8968 56.147C97.8968 54.5929 96.6461 53.333 95.1034 53.333C93.5606 53.333 92.3099 54.5929 92.3099 56.147C92.3099 57.7011 93.5606 58.961 95.1034 58.961Z" stroke="#231F20" stroke-width="0.5" stroke-miterlimit="10"/>
<path d="M91.1953 66.4135C92.7381 66.4135 93.9887 65.1537 93.9887 63.5995C93.9887 62.0454 92.7381 60.7855 91.1953 60.7855C89.6525 60.7855 88.4019 62.0454 88.4019 63.5995C88.4019 65.1537 89.6525 66.4135 91.1953 66.4135Z" stroke="#231F20" stroke-width="0.5" stroke-miterlimit="10"/>
<path d="M71.1052 83.5875H49.7108V100.251H71.1052V83.5875Z" stroke="#232323" stroke-width="0.5" stroke-miterlimit="10"/>
<path d="M60.5152 97.0671C63.5366 97.0671 65.9859 94.5997 65.9859 91.5561C65.9859 88.5125 63.5366 86.0451 60.5152 86.0451C57.4938 86.0451 55.0445 88.5125 55.0445 91.5561C55.0445 94.5997 57.4938 97.0671 60.5152 97.0671Z" stroke="white" stroke-width="0.5" stroke-miterlimit="10"/>
<path d="M60.5151 86.0477V91.556L64.0188 95.7876" stroke="white" stroke-width="0.5" stroke-miterlimit="10"/>
<path d="M43.8918 83.5875H19.2947V100.251H43.8918V83.5875Z" stroke="#232323" stroke-width="0.5" stroke-miterlimit="10"/>
<path d="M19.2947 94.6494H26.0962L28.3642 89.8113L30.2309 94.6494L33.0322 86.8537L35.9682 96.5298L37.4362 88.3325H43.171" stroke="white" stroke-width="0.5" stroke-miterlimit="10"/>
<path d="M27.1892 14.5248L28.2321 15.2482C28.6968 15.57 29.2487 15.7456 29.8137 15.7456H33.5708V11.9023C33.5708 5.88062 28.7259 1 22.7482 1H20.9528C14.9752 1 10.1302 5.88062 10.1302 11.9023V15.7429H22.2835C23.0941 15.7429 23.8704 15.4105 24.4327 14.82L26.0856 13.0832" fill="#333333"/>
<path d="M27.1892 14.5248L28.2321 15.2482C28.6968 15.57 29.2487 15.7456 29.8137 15.7456H33.5708V11.9023C33.5708 5.88062 28.7259 1 22.7482 1H20.9528C14.9752 1 10.1302 5.88062 10.1302 11.9023V15.7429H22.2835C23.0941 15.7429 23.8704 15.4105 24.4327 14.82L26.0856 13.0832" stroke="black" stroke-width="0.5" stroke-miterlimit="10"/>
</svg>
