<svg width="92" height="92" viewBox="0 0 92 92" fill="none" xmlns="http://www.w3.org/2000/svg">
<path d="M28.464 54.2766C43.5715 54.2766 55.8185 42.1264 55.8185 27.1383C55.8185 12.1502 43.5715 0 28.464 0C13.3565 0 1.10944 12.1502 1.10944 27.1383C1.10944 42.1264 13.3565 54.2766 28.464 54.2766Z" fill="#EF9133"/>
<path d="M28.3546 54.6684C43.4621 54.6684 55.7091 42.5182 55.7091 27.5301C55.7091 12.5421 43.4621 0.391846 28.3546 0.391846C13.2471 0.391846 1 12.5421 1 27.5301C1 42.5182 13.2471 54.6684 28.3546 54.6684Z" stroke="#232323" stroke-width="0.5" stroke-miterlimit="10" stroke-linecap="round"/>
<path d="M24.4349 50.1392C12.7846 41.2234 11.4961 27.5301 11.4961 27.5301C12.902 10.6442 28.3544 0.391846 28.3544 0.391846C28.3544 0.391846 42.9926 10.0342 45.3347 25.8319" stroke="#232323" stroke-width="0.5" stroke-miterlimit="10" stroke-linecap="round"/>
<path d="M5.49704 12.6184H51.4309" stroke="#232323" stroke-width="0.5" stroke-miterlimit="10" stroke-linecap="round"/>
<path d="M1 26.8771H24.9511" stroke="#232323" stroke-width="0.5" stroke-miterlimit="10" stroke-linecap="round"/>
<path d="M4.98578 41.6449H24.4349" stroke="#232323" stroke-width="0.5" stroke-miterlimit="10" stroke-linecap="round"/>
<path d="M82.6172 83.5065H27.9962C26.0295 83.5065 24.4351 81.9248 24.4351 79.9736V29.3633C24.4351 27.4121 26.0295 25.8304 27.9962 25.8304H82.6188C84.5854 25.8304 86.1798 27.4121 86.1798 29.3633V79.9736C86.1783 81.9263 84.5839 83.5065 82.6172 83.5065Z" fill="white"/>
<path d="M87.9271 91H21.7129C20.015 91 18.64 89.6344 18.64 87.9515V86.5582C18.64 84.8738 20.0166 83.5096 21.7129 83.5096H87.9271C89.625 83.5096 91 84.8753 91 86.5582V87.9515C91 89.6344 89.625 91 87.9271 91Z" fill="#2F78CD"/>
<path d="M62.0558 59.469H47.552C46.1337 59.469 44.9843 58.3287 44.9843 56.9216V50.1516C44.9843 48.7446 46.1337 47.6042 47.552 47.6042H62.0558C63.474 47.6042 64.6235 48.7446 64.6235 50.1516V56.9216C64.6219 58.3287 63.474 59.469 62.0558 59.469Z" fill="#2F78CD"/>
<path d="M82.6172 83.5065H27.9962C26.0295 83.5065 24.4351 81.9248 24.4351 79.9736V29.3633C24.4351 27.4121 26.0295 25.8304 27.9962 25.8304H82.6188C84.5855 25.8304 86.1798 27.4121 86.1798 29.3633V79.9736C86.1783 81.9263 84.5839 83.5065 82.6172 83.5065Z" stroke="#232323" stroke-width="0.5" stroke-miterlimit="10" stroke-linecap="round"/>
<path d="M87.9271 91H21.7129C20.015 91 18.64 89.6344 18.64 87.9515V86.5582C18.64 84.8738 20.0166 83.5096 21.7129 83.5096H87.9271C89.625 83.5096 91 84.8753 91 86.5582V87.9515C91 89.6344 89.625 91 87.9271 91Z" stroke="#232323" stroke-width="0.5" stroke-miterlimit="10" stroke-linecap="round"/>
<path d="M75.946 77.0601H34.9234C32.7203 77.0601 30.9329 75.2882 30.9329 73.101V73.003C30.9329 70.8173 32.7188 69.0439 34.9234 69.0439H75.946C78.149 69.0439 79.9365 70.8158 79.9365 73.003V73.101C79.935 75.2882 78.149 77.0601 75.946 77.0601Z" stroke="#232323" stroke-width="0.5" stroke-miterlimit="10" stroke-linecap="round"/>
<path d="M28.2989 31.2041V43.7785" stroke="#232323" stroke-width="0.5" stroke-miterlimit="10" stroke-linecap="round"/>
<path d="M28.2989 46.7413V54.6701" stroke="#232323" stroke-width="0.5" stroke-miterlimit="10" stroke-linecap="round"/>
<path d="M81.3409 31.9475V43.7785" stroke="#232323" stroke-width="0.5" stroke-miterlimit="10" stroke-linecap="round"/>
<path d="M60.5955 47.9651H49.5168V38.9159C49.5168 35.8812 51.9965 33.4211 55.0554 33.4211C58.1144 33.4211 60.594 35.8812 60.594 38.9159V47.9651H60.5955Z" fill="white"/>
<path d="M81.3409 46.7413V53.5374" stroke="#232323" stroke-width="0.5" stroke-miterlimit="10" stroke-linecap="round"/>
<path d="M60.5955 47.7329H49.5168V38.6837C49.5168 35.6489 51.9965 33.1889 55.0554 33.1889C58.1144 33.1889 60.594 35.6489 60.594 38.6837V47.7329H60.5955Z" stroke="#232323" stroke-width="0.5" stroke-miterlimit="10" stroke-linecap="round"/>
<path d="M62.0558 59.5962H47.552C46.1337 59.5962 44.9843 58.4559 44.9843 57.0488V50.2788C44.9843 48.8718 46.1337 47.7314 47.552 47.7314H62.0558C63.474 47.7314 64.6235 48.8718 64.6235 50.2788V57.0488C64.6219 58.4574 63.474 59.5962 62.0558 59.5962Z" stroke="#232323" stroke-width="0.5" stroke-miterlimit="10" stroke-linecap="round"/>
<path d="M65.1502 46.657C65.1502 46.657 60.1431 51.039 57.4935 50.7478C57.4935 50.7478 57.1984 60.5848 65.1502 64.2848C65.1502 64.2848 74.7705 60.194 72.6107 50.7478C72.6107 50.7478 68.685 49.4818 65.1502 46.657Z" fill="#EF9133"/>
<path d="M65.1502 46.7413C65.1502 46.7413 60.1431 51.1234 57.4935 50.8322C57.4935 50.8322 57.1984 60.6691 65.1502 64.3691C65.1502 64.3691 74.7705 60.2783 72.6107 50.8322C72.6107 50.8322 68.685 49.5661 65.1502 46.7413Z" stroke="#232323" stroke-width="0.5" stroke-miterlimit="10" stroke-linecap="round"/>
<path d="M65.1811 48.3246C65.1811 48.3246 63.9869 50.4459 59.3196 51.787L59.4942 55.6234H65.1811V48.3246Z" fill="#2F78CD"/>
<path d="M65.5146 55.6234H71.0995C71.0995 55.6234 70.5758 60.0545 65.5146 62.4793V55.6234Z" fill="#2F78CD"/>
<path d="M65.2087 48.2571C65.2087 48.2571 64.0145 50.3784 59.3473 51.7195L59.5218 55.5559H65.2087V48.2571Z" stroke="#232323" stroke-width="0.5" stroke-miterlimit="10" stroke-linecap="round"/>
<path d="M65.5422 55.5559H71.1272C71.1272 55.5559 70.6034 59.987 65.5422 62.4118V55.5559Z" stroke="#232323" stroke-width="0.5" stroke-miterlimit="10" stroke-linecap="round"/>
<path d="M38.6948 74.3501H37.1468C36.518 74.3501 36.0081 73.8443 36.0081 73.2205V73.0396C36.0081 72.4158 36.518 71.91 37.1468 71.91H38.6948C39.3236 71.91 39.8334 72.4158 39.8334 73.0396V73.2205C39.8319 73.8443 39.322 74.3501 38.6948 74.3501Z" fill="#2F78CD"/>
<path d="M44.1976 74.3501H42.6496C42.0208 74.3501 41.511 73.8443 41.511 73.2205V73.0396C41.511 72.4158 42.0208 71.91 42.6496 71.91H44.1976C44.8264 71.91 45.3362 72.4158 45.3362 73.0396V73.2205C45.3347 73.8443 44.8264 74.3501 44.1976 74.3501Z" fill="#2F78CD"/>
<path d="M50.2927 74.3501H48.7446C48.1158 74.3501 47.606 73.8443 47.606 73.2205V73.0396C47.606 72.4158 48.1158 71.91 48.7446 71.91H50.2927C50.9214 71.91 51.4313 72.4158 51.4313 73.0396V73.2205C51.4313 73.8443 50.9214 74.3501 50.2927 74.3501Z" fill="#2F78CD"/>
<path d="M55.7955 74.3501H54.2475C53.6187 74.3501 53.1089 73.8443 53.1089 73.2205V73.0396C53.1089 72.4158 53.6187 71.91 54.2475 71.91H55.7955C56.4243 71.91 56.9341 72.4158 56.9341 73.0396V73.2205C56.9341 73.8443 56.4243 74.3501 55.7955 74.3501Z" fill="#2F78CD"/>
<path d="M61.8053 74.3501H60.2573C59.6285 74.3501 59.1187 73.8443 59.1187 73.2205V73.0396C59.1187 72.4158 59.6285 71.91 60.2573 71.91H61.8053C62.4341 71.91 62.9439 72.4158 62.9439 73.0396V73.2205C62.9439 73.8443 62.4341 74.3501 61.8053 74.3501Z" fill="#2F78CD"/>
<path d="M67.3098 74.3501H65.7618C65.133 74.3501 64.6231 73.8443 64.6231 73.2205V73.0396C64.6231 72.4158 65.133 71.91 65.7618 71.91H67.3098C67.9386 71.91 68.4484 72.4158 68.4484 73.0396V73.2205C68.4468 73.8443 67.937 74.3501 67.3098 74.3501Z" fill="#2F78CD"/>
<path d="M73.1683 74.3501H71.6203C70.9915 74.3501 70.4817 73.8443 70.4817 73.2205V73.0396C70.4817 72.4158 70.9915 71.91 71.6203 71.91H73.1683C73.7971 71.91 74.3069 72.4158 74.3069 73.0396V73.2205C74.3069 73.8443 73.7971 74.3501 73.1683 74.3501Z" fill="#2F78CD"/>
</svg>
