<svg width="101" height="96" viewBox="0 0 101 96" fill="none" xmlns="http://www.w3.org/2000/svg">
<path d="M63.0565 52.5992H34.0029L21.0618 67.5137L20.1754 52.5992H11.5074C8.65867 52.5992 6.35019 50.2868 6.35019 47.4332V20.7974C6.35019 17.9439 8.65867 15.6315 11.5074 15.6315H63.0565C65.9053 15.6315 68.2138 17.9439 68.2138 20.7974V47.4309C68.2138 50.2868 65.9053 52.5992 63.0565 52.5992Z" fill="white"/>
<path d="M20.7647 68.5492L19.8479 53.1052H11.5074C8.46917 53.1052 5.9993 50.6288 5.9993 47.5878V20.952C5.9993 17.9087 8.4715 15.4346 11.5074 15.4346H63.0565C66.0947 15.4346 68.5646 17.911 68.5646 20.952V47.5854C68.5646 50.6288 66.0924 53.1028 63.0565 53.1028H34.1619L20.7647 68.5492ZM11.5074 16.1375C8.85742 16.1375 6.70096 18.2976 6.70096 20.952V47.5854C6.70096 50.2399 8.85742 52.4 11.5074 52.4H20.5074L21.3635 66.7874L33.8438 52.4H63.0565C65.7065 52.4 67.8629 50.2399 67.8629 47.5854V20.952C67.8629 18.2976 65.7065 16.1375 63.0565 16.1375H11.5074Z" fill="#142637"/>
<path d="M90.7093 75.3271H84.3452L84.7007 94.8594L68.2162 75.3271H39.1602C36.3114 75.3271 34.0029 73.0147 34.0029 70.1611V43.5253C34.0029 40.6718 36.3114 38.3594 39.1602 38.3594H90.7093C93.558 38.3594 95.8665 40.6718 95.8665 43.5253V70.1588C95.8689 73.0147 93.558 75.3271 90.7093 75.3271Z" fill="white"/>
<path d="M26.792 14.3804H26.3242V15.7861H26.792V14.3804Z" fill="#232323"/>
<path d="M86.3528 34.3226H85.885V31.5463H86.3528V34.3226ZM86.3528 28.7677H85.885V25.9915H86.3528V28.7677ZM86.3528 23.2129H85.885V20.4366H86.3528V23.2129ZM86.3528 17.6603H85.885V14.8817H86.3528V17.6603ZM85.8686 12.1265C85.7915 11.2409 85.464 10.4022 84.9214 9.697L85.2909 9.41118C85.8873 10.1867 86.2475 11.1121 86.3341 12.0844L85.8686 12.1265ZM26.8772 11.6509L26.4188 11.5619C26.6035 10.6037 27.0573 9.72043 27.7309 9.01055L28.07 9.33386C27.4549 9.98049 27.0432 10.7817 26.8772 11.6509ZM82.8164 8.1601C82.3135 7.9797 81.7849 7.88599 81.2446 7.88599H80.1571V7.41742H81.2446C81.8387 7.41742 82.4211 7.51816 82.9754 7.71965L82.8164 8.1601ZM30.3177 8.02187L30.2054 7.56736C30.6054 7.46896 31.017 7.41976 31.4333 7.41976H33.0238V7.88833H31.4333C31.0568 7.88599 30.6802 7.93285 30.3177 8.02187ZM77.3855 7.88599H74.6116V7.41742H77.3831V7.88599H77.3855ZM71.84 7.88599H69.0684V7.41742H71.84V7.88599ZM66.2945 7.88599H63.5229V7.41742H66.2945V7.88599ZM60.749 7.88599H57.9774V7.41742H60.749V7.88599ZM55.2035 7.88599H52.4319V7.41742H55.2035V7.88599ZM49.658 7.88599H46.8864V7.41742H49.658V7.88599ZM44.1148 7.88599H41.3432V7.41742H44.1148V7.88599ZM38.5693 7.88599H35.7977V7.41742H38.5693V7.88599Z" fill="#232323"/>
<path d="M86.3518 37.1083H85.884V38.514H86.3518V37.1083Z" fill="#232323"/>
<path d="M86.5948 75.0043H84.8219H70.9771H68.693H45.2339V63.9367C45.2339 57.4963 50.4449 52.2764 56.8745 52.2764H74.9542C81.3838 52.2764 86.5948 57.4963 86.5948 63.9367V75.0043Z" fill="#2F78CD"/>
<path d="M55.2188 52.3936L65.5894 73.8212L76.6102 52.3936H55.2188Z" fill="white"/>
<path d="M76.5 75.1426L68.583 75.1965H45V63.8946C45 57.3347 50.328 52 56.8745 52H74.9542C81.503 52 86.8287 57.337 86.8287 63.8946V75.1965H85.0605L76.5 75.1426ZM45.4678 74.7279H68.8005L77.5 75.1965L84.5834 74.7279H86.3609V63.8946C86.3609 57.5947 81.2434 52.4686 74.9542 52.4686H56.8745C50.5853 52.4686 45.4678 57.5947 45.4678 63.8946V74.7279Z" fill="#232323"/>
<path d="M65.5825 74.3015L54.8447 52.1171H76.9916L65.5825 74.3015ZM55.5932 52.5857L65.5966 73.2542L76.2268 52.5857H55.5932Z" fill="#232323"/>
<path d="M54.7466 69.4401H52.2065V75.0043H54.7466V69.4401Z" fill="white"/>
<path d="M79.1504 87.3933L76.6104 84.3851V69.4401H79.1504V87.3933Z" fill="white"/>
<path d="M65.5894 52.6419L61.4238 57.9578L64.2609 60.6802L62.9605 68.8778L65.5894 73.8212L68.6908 68.3741L67.3319 60.4436L69.8134 57.7212L65.5894 52.6419Z" fill="#EF9133"/>
<path d="M85.0678 95.9932L68.05 75.8307H39.1601C36.1219 75.8307 33.652 73.3544 33.652 70.3134V43.6799C33.652 40.6366 36.1242 38.1625 39.1601 38.1625H90.7092C93.7474 38.1625 96.2173 40.6389 96.2173 43.6799V70.3134C96.2173 73.3567 93.7451 75.8307 90.7092 75.8307H84.7029L85.0678 95.9932ZM39.1601 38.8654C36.5101 38.8654 34.3537 41.0255 34.3537 43.6799V70.3134C34.3537 72.9678 36.5101 75.1279 39.1601 75.1279H68.3775L84.331 94.0299L83.9872 75.1279H90.7092C93.3591 75.1279 95.5156 72.9678 95.5156 70.3134V43.6799C95.5156 41.0255 93.3591 38.8654 90.7092 38.8654H39.1601Z" fill="#142637"/>
<path d="M86.118 23.808C89.6341 23.808 92.4845 20.9528 92.4845 17.4307C92.4845 13.9087 89.6341 11.0535 86.118 11.0535C82.6019 11.0535 79.7515 13.9087 79.7515 17.4307C79.7515 20.9528 82.6019 23.808 86.118 23.808Z" fill="white"/>
<path d="M100.062 18.8974L99.4706 13.8064H95.8664L93.9158 10.9645L94.6245 6.17104L91.0787 4.69037L88.0054 7.64938H84.6959L81.3863 5.40025L77.7237 7.64938L79.7328 11.6744L77.9599 14.6334L73.7054 15.7837V20.1976L78.4323 20.6709L80.3222 23.4729L78.7855 27.5354L83.2762 30.1407L86.1132 26.3523L88.8895 26.1157L92.2575 29.5479L95.8617 26.5889L94.2666 23.0793L95.8617 20.0781L100.062 18.8974ZM86.6512 21.7111C84.2047 21.7111 82.219 19.7244 82.219 17.2714C82.219 14.8185 84.2024 12.8317 86.6512 12.8317C89.1 12.8317 91.0834 14.8185 91.0834 17.2714C91.0834 19.7244 89.0977 21.7111 86.6512 21.7111Z" fill="#EF9133"/>
<path d="M83.344 30.4617L78.5025 27.6526L80.0672 23.5175L78.306 20.9052L73.4786 20.4226V15.6174L77.8149 14.446L79.4731 11.6768L77.4266 7.57444L81.4027 5.1332L84.7777 7.42684H87.9212L91.0366 4.42566L94.8911 6.03519L94.1684 10.9177L95.9974 13.5815H99.6858L100.324 19.0778L96.0325 20.289L94.5379 23.1004L96.1611 26.6686L92.2528 29.8783L88.8123 26.3711L86.2489 26.5889L83.344 30.4617ZM79.0802 27.4488L83.22 29.8502L85.994 26.1438L88.9854 25.8884L92.2809 29.2481L95.5811 26.5397L94.0117 23.0887L95.7074 19.8978L99.8074 18.7404L99.2625 14.0547H95.7425L93.6725 11.0348L94.3695 6.33039L91.1348 4.98091L88.1036 7.90009H84.6281L81.384 5.69548L78.0324 7.75249L80.0017 11.7002L78.1143 14.8513L73.9417 15.9782V20.0009L78.568 20.4648L80.5888 23.4589L79.0802 27.4488ZM86.6512 21.9571C84.0784 21.9571 81.9851 19.8603 81.9851 17.2832C81.9851 14.706 84.0784 12.6092 86.6512 12.6092C89.224 12.6092 91.3173 14.706 91.3173 17.2832C91.3173 19.8603 89.2216 21.9571 86.6512 21.9571ZM86.6512 13.0801C84.3357 13.0801 82.4529 14.9661 82.4529 17.2855C82.4529 19.6049 84.3357 21.4909 86.6512 21.4909C88.9667 21.4909 90.8495 19.6049 90.8495 17.2855C90.8495 14.9661 88.9644 13.0801 86.6512 13.0801Z" fill="#232323"/>
<path d="M17.9136 35.4472C27.6287 35.4472 35.5044 27.5582 35.5044 17.8267C35.5044 8.09515 27.6287 0.206177 17.9136 0.206177C8.19851 0.206177 0.322845 8.09515 0.322845 17.8267C0.322845 27.5582 8.19851 35.4472 17.9136 35.4472Z" fill="white"/>
<path d="M17.8248 33.498C26.4781 33.498 33.493 26.4712 33.493 17.8033C33.493 9.13533 26.4781 2.10858 17.8248 2.10858C9.17148 2.10858 2.15659 9.13533 2.15659 17.8033C2.15659 26.4712 9.17148 33.498 17.8248 33.498Z" fill="#2F78CD"/>
<path d="M17.9135 26.9966C22.8621 26.9966 26.8738 22.9781 26.8738 18.0211C26.8738 13.0642 22.8621 9.04572 17.9135 9.04572C12.9649 9.04572 8.95322 13.0642 8.95322 18.0211C8.95322 22.9781 12.9649 26.9966 17.9135 26.9966Z" fill="white"/>
<path d="M18.1919 21.4066C20.0585 21.4066 21.5716 19.8909 21.5716 18.0211C21.5716 16.1514 20.0585 14.6357 18.1919 14.6357C16.3254 14.6357 14.8123 16.1514 14.8123 18.0211C14.8123 19.8909 16.3254 21.4066 18.1919 21.4066Z" fill="#2F78CD"/>
<path d="M17.8247 35.7096C7.99666 35.7096 0 27.6994 0 17.8548C0 8.01017 7.99666 0 17.8247 0C27.6527 0 35.6493 8.01017 35.6493 17.8548C35.6493 27.6994 27.6527 35.7096 17.8247 35.7096ZM17.8247 0.468568C8.25394 0.468568 0.467778 8.26789 0.467778 17.8548C0.467778 27.4417 8.25394 35.241 17.8247 35.241C27.3954 35.241 35.1816 27.4417 35.1816 17.8548C35.1816 8.26789 27.3954 0.468568 17.8247 0.468568Z" fill="#232323"/>
<path d="M18.103 21.6689C16.1103 21.6689 14.4894 20.0454 14.4894 18.0493C14.4894 16.0532 16.1103 14.4296 18.103 14.4296C20.0957 14.4296 21.7166 16.0532 21.7166 18.0493C21.7166 20.0454 20.0957 21.6689 18.103 21.6689ZM18.103 14.8981C16.3675 14.8981 14.9572 16.3109 14.9572 18.0493C14.9572 19.7876 16.3675 21.2004 18.103 21.2004C19.8385 21.2004 21.2488 19.7876 21.2488 18.0493C21.2488 16.3109 19.8361 14.8981 18.103 14.8981Z" fill="#232323"/>
<path d="M17.8249 27.2613C12.7542 27.2613 8.62836 23.1286 8.62836 18.0516C8.62836 12.9747 12.7542 8.84192 17.8249 8.84192C22.8956 8.84192 27.019 12.9747 27.019 18.0516C27.019 23.1286 22.8956 27.2613 17.8249 27.2613ZM17.8249 9.30814C13.0114 9.30814 9.09613 13.2301 9.09613 18.0493C9.09613 22.8685 13.0114 26.7904 17.8249 26.7904C22.6383 26.7904 26.5513 22.8685 26.5513 18.0493C26.5513 13.2301 22.636 9.30814 17.8249 9.30814Z" fill="#232323"/>
<path d="M17.7356 33.758C8.96714 33.758 1.83353 26.6123 1.83353 17.829C1.83353 9.04573 8.96714 1.9024 17.7356 1.9024C26.5041 1.9024 33.6377 9.04807 33.6377 17.8314C33.6377 26.6147 26.5018 33.758 17.7356 33.758ZM17.7356 2.37097C9.22442 2.37097 2.3013 9.30578 2.3013 17.8314C2.3013 26.357 9.22442 33.2918 17.7356 33.2918C26.2468 33.2918 33.17 26.357 33.17 17.8314C33.1676 9.30578 26.2445 2.37097 17.7356 2.37097Z" fill="#232323"/>
<path d="M24.7931 38.9278H18.3071C18.1378 38.9278 18.0004 38.7902 18.0004 38.6206V26.5238C18.0004 26.3542 18.1378 26.2166 18.3071 26.2166C18.4764 26.2166 18.6138 26.3542 18.6138 26.5238V38.3134H24.7943C24.9636 38.3134 25.101 38.4511 25.101 38.6206C25.101 38.7902 24.9636 38.9278 24.7931 38.9278Z" fill="#232323"/>
<path d="M18.307 22.8163C18.9535 24.5613 20.0564 26.7265 21.2243 28.0684L18.307 27.0116L15.3909 28.0684C16.5588 26.7265 17.6617 24.5613 18.307 22.8163Z" fill="#232323"/>
<path d="M64.9346 47.9604C70.5639 47.9604 75.1274 43.3891 75.1274 37.7503C75.1274 32.1114 70.5639 27.5402 64.9346 27.5402C59.3052 27.5402 54.7417 32.1114 54.7417 37.7503C54.7417 43.3891 59.3052 47.9604 64.9346 47.9604Z" fill="#EF9133"/>
<path d="M64.9344 48.1923C59.1854 48.1923 54.5077 43.5066 54.5077 37.7479C54.5077 31.9892 59.1854 27.3035 64.9344 27.3035C70.6834 27.3035 75.3612 31.9892 75.3612 37.7479C75.3612 43.5089 70.6834 48.1923 64.9344 48.1923ZM64.9344 27.7744C59.4427 27.7744 54.9754 32.2492 54.9754 37.7502C54.9754 43.2512 59.4427 47.726 64.9344 47.726C70.4262 47.726 74.8934 43.2512 74.8934 37.7502C74.8934 32.2492 70.4262 27.7744 64.9344 27.7744Z" fill="#232323"/>
</svg>
