<svg width="124" height="114" viewBox="0 0 124 114" fill="none" xmlns="http://www.w3.org/2000/svg">
<path d="M57.8537 59.4438C57.8537 55.7369 55.2137 52.5986 51.5695 51.5392C51.3013 47.6634 47.8057 44.5962 43.532 44.5962C42.6631 44.5962 41.8252 44.725 41.0427 44.9604C38.9746 42.5906 35.8048 41.0736 32.2471 41.0736C26.0139 41.0736 20.9622 45.7289 20.9622 51.4725C20.9622 51.5636 20.9666 51.6524 20.9688 51.7413C16.4535 51.8501 12.8271 55.255 12.8271 59.4438C12.8271 63.424 14.9262 67.3241 19.129 67.7328H20.3038H49.2664V67.7239C54.0455 67.524 57.8537 63.8948 57.8537 59.4438Z" fill="#EF9133"/>
<path d="M79.636 35.4397C79.636 31.5906 82.1408 28.3323 85.5965 27.2329C85.8514 23.2084 89.1675 20.0234 93.2217 20.0234C94.0463 20.0234 94.8399 20.1567 95.5847 20.401C97.5464 17.9401 100.554 16.3654 103.928 16.3654C109.842 16.3654 114.634 21.2006 114.634 27.1641C114.634 27.2574 114.63 27.3506 114.628 27.4439C118.913 27.5572 122.353 31.0931 122.353 35.4419C122.353 39.5753 120.36 43.6242 116.375 44.0484H115.26H87.7799V44.0395C83.2469 43.8308 79.636 40.0617 79.636 35.4397Z" fill="#EF9133"/>
<path d="M57.4807 59.4195C57.4807 55.7126 54.8407 52.5743 51.1966 51.5149C50.9283 47.6391 47.4327 44.5719 43.159 44.5719C42.2901 44.5719 41.4522 44.7007 40.6697 44.9361C38.6016 42.5663 35.4318 41.0493 31.8741 41.0493C25.6409 41.0493 20.5892 45.7046 20.5892 51.4482C20.5892 51.5393 20.5936 51.6281 20.5958 51.717C16.0805 51.8258 12.4541 55.2307 12.4541 59.4195C12.4541 63.3997 14.5533 67.2998 18.756 67.7085H19.9308H48.8935V67.6996C53.6725 67.4997 57.4807 63.8705 57.4807 59.4195Z" stroke="#232323" stroke-width="0.5" stroke-miterlimit="10"/>
<path d="M80.2831 35.328C80.2831 31.4789 82.7879 28.2206 86.2437 27.1212C86.4986 23.0967 89.8147 19.9117 93.8689 19.9117C94.6935 19.9117 95.4871 20.045 96.2319 20.2893C98.1936 17.8284 101.202 16.2537 104.575 16.2537C110.489 16.2537 115.282 21.0889 115.282 27.0524C115.282 27.1457 115.277 27.2389 115.275 27.3322C119.56 27.4455 123 30.9814 123 35.3302C123 39.4636 121.007 43.5125 117.022 43.9367H115.907H88.4271V43.9279C83.8941 43.7191 80.2831 39.95 80.2831 35.328Z" stroke="#232323" stroke-width="0.5" stroke-miterlimit="10"/>
<path d="M82.1912 62.6201H41.3696C36.7301 62.6201 32.9707 58.851 32.9707 54.2045V10.7743C32.9707 6.12565 36.7323 2.35876 41.3696 2.35876H82.1934C86.8329 2.35876 90.5923 6.12787 90.5923 10.7743V54.2045C90.5923 58.851 86.8306 62.6201 82.1912 62.6201Z" fill="white" stroke="#232323" stroke-width="0.5" stroke-miterlimit="10"/>
<path d="M85.4491 62.1879H44.6274C39.988 62.1879 36.2285 58.4188 36.2285 53.7724V10.3422C36.2285 5.69352 39.9902 1.92664 44.6274 1.92664H85.4513C90.0907 1.92664 93.8501 5.69574 93.8501 10.3422V53.7724C93.8501 58.4188 90.0885 62.1879 85.4491 62.1879Z" fill="white" stroke="#232323" stroke-width="0.5" stroke-miterlimit="10"/>
<path d="M93.8651 16.2535H36.2413V10.6054C36.2413 6.05004 39.9276 2.35645 44.4739 2.35645H85.6325C90.1788 2.35645 93.8651 6.05004 93.8651 10.6054V16.2535Z" fill="#EF9133" stroke="#232323" stroke-width="0.5" stroke-miterlimit="10"/>
<path d="M55.3392 23.3987H48.9132V29.8375H55.3392V23.3987Z" fill="#2F78CD"/>
<path d="M55.3392 23.3987H48.9132V29.8375H55.3392V23.3987Z" stroke="#232323" stroke-width="0.5" stroke-miterlimit="10"/>
<path d="M63.4034 23.3987H56.9774V29.8375H63.4034V23.3987Z" fill="#2F78CD"/>
<path d="M63.4034 23.3987H56.9774V29.8375H63.4034V23.3987Z" stroke="#232323" stroke-width="0.5" stroke-miterlimit="10"/>
<path d="M71.4654 23.3987H65.0394V29.8375H71.4654V23.3987Z" fill="#2F78CD"/>
<path d="M71.4654 23.3987H65.0394V29.8375H71.4654V23.3987Z" stroke="#232323" stroke-width="0.5" stroke-miterlimit="10"/>
<path d="M79.5293 23.3987H73.1032V29.8375H79.5293V23.3987Z" fill="#2F78CD"/>
<path d="M79.5293 23.3987H73.1032V29.8375H79.5293V23.3987Z" stroke="#232323" stroke-width="0.5" stroke-miterlimit="10"/>
<path d="M87.5935 23.3987H81.1674V29.8375H87.5935V23.3987Z" fill="#2F78CD"/>
<path d="M87.5935 23.3987H81.1674V29.8375H87.5935V23.3987Z" stroke="#232323" stroke-width="0.5" stroke-miterlimit="10"/>
<path d="M47.275 31.4788H40.849V37.9176H47.275V31.4788Z" fill="#2F78CD"/>
<path d="M47.275 31.4788H40.849V37.9176H47.275V31.4788Z" stroke="#232323" stroke-width="0.5" stroke-miterlimit="10"/>
<path d="M55.3392 31.4788H48.9132V37.9176H55.3392V31.4788Z" fill="#2F78CD"/>
<path d="M55.3392 31.4788H48.9132V37.9176H55.3392V31.4788Z" stroke="#232323" stroke-width="0.5" stroke-miterlimit="10"/>
<path d="M63.4034 31.4788H56.9774V37.9176H63.4034V31.4788Z" fill="#2F78CD"/>
<path d="M63.4034 31.4788H56.9774V37.9176H63.4034V31.4788Z" stroke="#232323" stroke-width="0.5" stroke-miterlimit="10"/>
<path d="M71.4654 31.4788H65.0394V37.9176H71.4654V31.4788Z" fill="#2F78CD"/>
<path d="M71.4654 31.4788H65.0394V37.9176H71.4654V31.4788Z" stroke="#232323" stroke-width="0.5" stroke-miterlimit="10"/>
<path d="M79.5293 31.4788H73.1032V37.9176H79.5293V31.4788Z" fill="#2F78CD"/>
<path d="M79.5293 31.4788H73.1032V37.9176H79.5293V31.4788Z" stroke="#232323" stroke-width="0.5" stroke-miterlimit="10"/>
<path d="M87.5935 31.4788H81.1674V37.9176H87.5935V31.4788Z" fill="#2F78CD"/>
<path d="M87.5935 31.4788H81.1674V37.9176H87.5935V31.4788Z" stroke="#232323" stroke-width="0.5" stroke-miterlimit="10"/>
<path d="M63.4034 47.637H56.9774V54.0758H63.4034V47.637Z" fill="#2F78CD"/>
<path d="M63.4034 47.637H56.9774V54.0758H63.4034V47.637Z" stroke="#232323" stroke-width="0.5" stroke-miterlimit="10"/>
<path d="M71.4654 47.637H65.0394V54.0758H71.4654V47.637Z" fill="#2F78CD"/>
<path d="M71.4654 47.637H65.0394V54.0758H71.4654V47.637Z" stroke="#232323" stroke-width="0.5" stroke-miterlimit="10"/>
<path d="M47.275 39.559H40.849V45.9978H47.275V39.559Z" fill="#2F78CD"/>
<path d="M47.275 39.559H40.849V45.9978H47.275V39.559Z" stroke="#232323" stroke-width="0.5" stroke-miterlimit="10"/>
<path d="M55.3392 39.559H48.9132V45.9978H55.3392V39.559Z" fill="#2F78CD"/>
<path d="M55.3392 39.559H48.9132V45.9978H55.3392V39.559Z" stroke="#232323" stroke-width="0.5" stroke-miterlimit="10"/>
<path d="M63.4034 39.559H56.9774V45.9978H63.4034V39.559Z" fill="#2F78CD"/>
<path d="M63.4034 39.559H56.9774V45.9978H63.4034V39.559Z" stroke="#232323" stroke-width="0.5" stroke-miterlimit="10"/>
<path d="M71.4654 39.559H65.0394V45.9978H71.4654V39.559Z" fill="#2F78CD"/>
<path d="M71.4654 39.559H65.0394V45.9978H71.4654V39.559Z" stroke="#232323" stroke-width="0.5" stroke-miterlimit="10"/>
<path d="M88.5358 69.9516C97.1053 69.9516 104.052 62.9909 104.052 54.4043C104.052 45.8178 97.1053 38.8571 88.5358 38.8571C79.9663 38.8571 73.0193 45.8178 73.0193 54.4043C73.0193 62.9909 79.9663 69.9516 88.5358 69.9516Z" fill="#FDFCEF"/>
<path d="M88.5358 69.9516C97.1053 69.9516 104.052 62.9909 104.052 54.4043C104.052 45.8178 97.1053 38.8571 88.5358 38.8571C79.9663 38.8571 73.0193 45.8178 73.0193 54.4043C73.0193 62.9909 79.9663 69.9516 88.5358 69.9516Z" stroke="#232323" stroke-width="0.5" stroke-miterlimit="10"/>
<path d="M43.2849 12.7378C44.3524 12.7378 45.2178 11.8706 45.2178 10.801C45.2178 9.73137 44.3524 8.86426 43.2849 8.86426C42.2174 8.86426 41.352 9.73137 41.352 10.801C41.352 11.8706 42.2174 12.7378 43.2849 12.7378Z" fill="#2F78CD"/>
<path d="M85.339 12.7378C86.4065 12.7378 87.2719 11.8706 87.2719 10.801C87.2719 9.73137 86.4065 8.86426 85.339 8.86426C84.2714 8.86426 83.406 9.73137 83.406 10.801C83.406 11.8706 84.2714 12.7378 85.339 12.7378Z" fill="#2F78CD"/>
<path d="M44.5442 0V7.01405" stroke="#232323" stroke-width="0.5" stroke-miterlimit="10"/>
<path d="M49.9772 0V7.01405" stroke="#232323" stroke-width="0.5" stroke-miterlimit="10"/>
<path d="M55.408 0V7.01405" stroke="#232323" stroke-width="0.5" stroke-miterlimit="10"/>
<path d="M60.841 0V7.01405" stroke="#232323" stroke-width="0.5" stroke-miterlimit="10"/>
<path d="M66.2718 0V7.01405" stroke="#232323" stroke-width="0.5" stroke-miterlimit="10"/>
<path d="M71.7045 0V7.01405" stroke="#232323" stroke-width="0.5" stroke-miterlimit="10"/>
<path d="M77.1354 0V7.01405" stroke="#232323" stroke-width="0.5" stroke-miterlimit="10"/>
<path d="M82.5684 0V7.01405" stroke="#232323" stroke-width="0.5" stroke-miterlimit="10"/>
<path d="M94.8775 63.5485C94.7112 63.4819 94.5295 63.4397 94.3832 63.342C93.747 62.9066 93.1175 62.4558 92.4924 62.0027C92.3505 61.9005 92.2375 61.8716 92.0668 61.9605C91.7919 62.1004 91.4905 62.1848 91.2112 62.3158C91.1314 62.3536 91.0516 62.4647 91.0338 62.5557C90.8942 63.3153 90.7723 64.0771 90.6415 64.8389C90.5572 65.3387 90.2425 65.6119 89.7393 65.6119C88.9258 65.6119 88.1145 65.6097 87.301 65.603C86.7358 65.5985 86.421 65.3054 86.3323 64.7523C86.2126 63.9972 86.0841 63.242 85.9466 62.4913C85.9333 62.4158 85.8535 62.3292 85.7804 62.2959C85.4634 62.1493 85.142 62.0116 84.8161 61.8894C84.7452 61.8628 84.6277 61.8739 84.5657 61.9161C83.9406 62.3403 83.3199 62.7734 82.7015 63.2087C82.2116 63.553 81.7971 63.5174 81.3826 63.091C80.8373 62.5313 80.2876 61.976 79.74 61.4185C79.3388 61.0099 79.3011 60.6234 79.6336 60.1592C80.0725 59.544 80.5159 58.9288 80.9636 58.318C81.0412 58.2114 81.0567 58.1292 80.9947 58.0004C80.8506 57.6983 80.7442 57.3807 80.6068 57.0764C80.5713 57.0009 80.4782 56.9187 80.3984 56.9032C79.6336 56.7521 78.8667 56.6211 78.1019 56.4723C77.6076 56.3768 77.3461 56.0458 77.3461 55.5483C77.3505 54.7421 77.3572 53.9359 77.3616 53.1296C77.3638 52.5699 77.632 52.2479 78.1795 52.159C78.9088 52.0413 79.6403 51.9258 80.3696 51.817C80.5159 51.7948 80.6045 51.7503 80.6577 51.5904C80.7619 51.2817 80.8971 50.9841 81.0346 50.6887C81.0878 50.5754 81.0922 50.4977 81.0168 50.3888C80.5779 49.7625 80.1479 49.1295 79.7157 48.4987C79.4142 48.059 79.4497 47.6525 79.8287 47.2749C80.4117 46.6953 80.9947 46.1178 81.5821 45.5448C81.9345 45.2005 82.3224 45.1605 82.7259 45.4426C83.3576 45.8846 83.9849 46.3377 84.6078 46.7952C84.7275 46.8818 84.8228 46.8907 84.9536 46.8307C85.2573 46.6953 85.5742 46.5842 85.8779 46.4487C85.9489 46.4176 86.0309 46.3332 86.0464 46.2599C86.1993 45.4781 86.339 44.6963 86.4831 43.9123C86.5584 43.497 86.8976 43.1971 87.3143 43.1949C88.1744 43.1927 89.0344 43.1993 89.8945 43.2082C90.3356 43.2127 90.6614 43.4659 90.7434 43.9012C90.8875 44.6763 91.0072 45.4559 91.1269 46.2355C91.1513 46.3887 91.2089 46.4665 91.3552 46.522C91.6589 46.6353 91.9515 46.7841 92.2552 46.8974C92.3328 46.9262 92.4569 46.9151 92.5256 46.8685C93.1596 46.4287 93.7869 45.9756 94.4164 45.5292C94.8221 45.2405 95.2499 45.2716 95.6023 45.6269C96.1875 46.2133 96.7705 46.8041 97.349 47.3971C97.7015 47.7569 97.7325 48.1678 97.4399 48.5876C96.9966 49.2206 96.551 49.8514 96.0966 50.4755C96.008 50.5976 96.0124 50.6865 96.0722 50.8175C96.2075 51.1062 96.3072 51.4083 96.4402 51.697C96.4801 51.7814 96.5754 51.8792 96.6597 51.8947C97.4333 52.0369 98.2113 52.1612 98.9871 52.2923C99.426 52.3656 99.7297 52.7076 99.7319 53.154C99.7341 54.0069 99.7275 54.862 99.7164 55.7149C99.7098 56.2035 99.4061 56.5256 98.9162 56.6055C98.1559 56.7299 97.3956 56.8543 96.6375 56.992C96.551 57.0076 96.4469 57.0964 96.407 57.1764C96.2695 57.4629 96.1742 57.7716 96.0301 58.0537C95.9548 58.2047 95.9858 58.2958 96.07 58.4157C96.5023 59.0176 96.9279 59.6239 97.3557 60.2281C97.6993 60.7167 97.6682 61.112 97.2515 61.5274C96.6863 62.0893 96.1188 62.649 95.5536 63.2109C95.3674 63.3953 95.1612 63.5219 94.8775 63.5485ZM88.478 50.9885C86.6028 50.9952 85.0467 52.5366 85.0467 54.3845C85.0489 56.3945 86.5784 57.9093 88.6 57.9026C90.4176 57.896 91.9582 56.3146 91.9604 54.4556C91.9626 52.5255 90.4109 50.9819 88.478 50.9885Z" fill="#2F78CD"/>
<path d="M94.8775 63.5485C94.7112 63.4819 94.5295 63.4397 94.3832 63.342C93.747 62.9066 93.1175 62.4558 92.4924 62.0027C92.3505 61.9005 92.2375 61.8716 92.0668 61.9605C91.7919 62.1004 91.4905 62.1848 91.2112 62.3158C91.1314 62.3536 91.0516 62.4647 91.0338 62.5557C90.8942 63.3153 90.7723 64.0771 90.6415 64.8389C90.5572 65.3387 90.2425 65.6119 89.7393 65.6119C88.9258 65.6119 88.1145 65.6097 87.301 65.603C86.7358 65.5985 86.421 65.3054 86.3323 64.7523C86.2126 63.9972 86.0841 63.242 85.9466 62.4913C85.9333 62.4158 85.8535 62.3292 85.7804 62.2959C85.4634 62.1493 85.142 62.0116 84.8161 61.8894C84.7452 61.8628 84.6277 61.8739 84.5657 61.9161C83.9406 62.3403 83.3199 62.7734 82.7015 63.2087C82.2116 63.553 81.7971 63.5174 81.3826 63.091C80.8373 62.5313 80.2876 61.976 79.74 61.4185C79.3388 61.0099 79.3011 60.6234 79.6336 60.1592C80.0725 59.544 80.5159 58.9288 80.9636 58.318C81.0412 58.2114 81.0567 58.1292 80.9947 58.0004C80.8506 57.6983 80.7442 57.3807 80.6068 57.0764C80.5713 57.0009 80.4782 56.9187 80.3984 56.9032C79.6336 56.7521 78.8667 56.6211 78.1019 56.4723C77.6076 56.3768 77.3461 56.0458 77.3461 55.5483C77.3505 54.7421 77.3572 53.9359 77.3616 53.1296C77.3638 52.5699 77.632 52.2479 78.1795 52.159C78.9088 52.0413 79.6403 51.9258 80.3696 51.817C80.5159 51.7948 80.6045 51.7503 80.6577 51.5904C80.7619 51.2817 80.8971 50.9841 81.0346 50.6887C81.0878 50.5754 81.0922 50.4977 81.0168 50.3888C80.5779 49.7625 80.1479 49.1295 79.7157 48.4987C79.4142 48.059 79.4497 47.6525 79.8287 47.2749C80.4117 46.6953 80.9947 46.1178 81.5821 45.5448C81.9345 45.2005 82.3224 45.1605 82.7259 45.4426C83.3576 45.8846 83.9849 46.3377 84.6078 46.7952C84.7275 46.8818 84.8228 46.8907 84.9536 46.8307C85.2573 46.6953 85.5742 46.5842 85.8779 46.4487C85.9489 46.4176 86.0309 46.3332 86.0464 46.2599C86.1993 45.4781 86.339 44.6963 86.4831 43.9123C86.5584 43.497 86.8976 43.1971 87.3143 43.1949C88.1744 43.1927 89.0344 43.1993 89.8945 43.2082C90.3356 43.2127 90.6614 43.4659 90.7434 43.9012C90.8875 44.6763 91.0072 45.4559 91.1269 46.2355C91.1513 46.3887 91.2089 46.4665 91.3552 46.522C91.6589 46.6353 91.9515 46.7841 92.2552 46.8974C92.3328 46.9262 92.4569 46.9151 92.5256 46.8685C93.1596 46.4287 93.7869 45.9756 94.4164 45.5292C94.8221 45.2405 95.2499 45.2716 95.6023 45.6269C96.1875 46.2133 96.7705 46.8041 97.349 47.3971C97.7015 47.7569 97.7325 48.1678 97.4399 48.5876C96.9966 49.2206 96.551 49.8514 96.0966 50.4755C96.008 50.5976 96.0124 50.6865 96.0722 50.8175C96.2075 51.1062 96.3072 51.4083 96.4402 51.697C96.4801 51.7814 96.5754 51.8792 96.6597 51.8947C97.4333 52.0369 98.2113 52.1612 98.9871 52.2923C99.426 52.3656 99.7297 52.7076 99.7319 53.154C99.7341 54.0069 99.7275 54.862 99.7164 55.7149C99.7098 56.2035 99.4061 56.5256 98.9162 56.6055C98.1559 56.7299 97.3956 56.8543 96.6375 56.992C96.551 57.0076 96.4469 57.0964 96.407 57.1764C96.2695 57.4629 96.1742 57.7716 96.0301 58.0537C95.9548 58.2047 95.9858 58.2958 96.07 58.4157C96.5023 59.0176 96.9279 59.6239 97.3557 60.2281C97.6993 60.7167 97.6682 61.112 97.2515 61.5274C96.6863 62.0893 96.1188 62.649 95.5536 63.2109C95.3674 63.3953 95.1612 63.5219 94.8775 63.5485ZM88.478 50.9885C86.6028 50.9952 85.0467 52.5366 85.0467 54.3845C85.0489 56.3945 86.5784 57.9093 88.6 57.9026C90.4176 57.896 91.9582 56.3146 91.9604 54.4556C91.9626 52.5255 90.4109 50.9819 88.478 50.9885Z" stroke="#232323" stroke-width="0.5" stroke-miterlimit="10"/>
<path d="M15.2003 59.1396C15.2003 58.6909 15.648 53.1916 21.5842 53.416C21.5842 53.416 22.3689 45.3358 28.4159 43.9343" stroke="#232323" stroke-width="0.5" stroke-miterlimit="10"/>
<path d="M98.752 20.8733C98.752 20.8733 108.831 15.374 112.192 27.1566" stroke="#232323" stroke-width="0.5" stroke-miterlimit="10"/>
<path d="M1.00923 113C1.00923 106.823 1.00923 100.88 1.00923 94.9341C1.00923 93.1239 1.02917 91.3138 1.00036 89.5036C0.991492 88.8862 1.14444 88.5131 1.75623 88.2265C10.6893 84.0354 19.5825 79.7533 28.5443 75.6266C34.5647 72.8547 40.9287 71.5554 47.5698 72.2128C49.9349 72.446 52.3045 72.9369 54.5921 73.5943C59.5152 75.0091 64.4783 75.2734 69.5677 74.9292C72.5956 74.7248 75.6723 75.0713 78.7158 75.3156C79.9926 75.4178 80.9479 76.244 81.3359 77.5544C81.7193 78.8471 81.5575 80.0464 80.6154 81.0592C79.5648 82.1897 78.2348 82.7894 76.7142 82.9182C72.1279 83.3092 67.5373 83.6712 62.9488 84.0465C62.8114 84.0576 62.6784 84.1021 62.5011 84.3641C63.2259 84.5352 63.9463 84.7151 64.6734 84.875C68.3508 85.679 72.0548 86.232 75.8364 86.1432C79.3409 86.061 82.6592 85.1682 85.9553 84.0643C92.6673 81.8188 99.5456 80.5129 106.645 80.4907C108.913 80.484 110.979 80.906 112.356 82.9582C113.433 84.564 113.052 85.3681 111.119 85.5791C109.113 85.7967 107.109 86.0255 104.874 86.2765C105.486 86.9583 105.952 87.4625 106.402 87.98C106.79 88.4242 107.191 88.8618 107.532 89.3415C108.516 90.7208 108.208 91.607 106.539 91.9623C104.777 92.3377 102.986 92.5709 101.217 92.9129C91.3639 94.823 81.4977 96.6798 71.6713 98.7165C69.1731 99.234 66.7105 100.158 64.3941 101.246C61.958 102.39 59.5684 102.534 56.9861 102.15C50.9102 101.244 44.8367 100.251 38.7276 99.6494C30.2667 98.8142 22.2269 100.405 14.8366 104.78C10.6184 107.276 6.42005 109.806 2.21286 112.32C1.87593 112.523 1.5257 112.709 1.00923 113Z" fill="#2F78CD"/>
<path d="M1.00923 113C1.00923 106.823 1.00923 100.88 1.00923 94.9341C1.00923 93.1239 1.02917 91.3138 1.00036 89.5036C0.991492 88.8862 1.14444 88.5131 1.75623 88.2265C10.6893 84.0354 19.5825 79.7533 28.5443 75.6266C34.5647 72.8547 40.9287 71.5554 47.5698 72.2128C49.9349 72.446 52.3045 72.9369 54.5921 73.5943C59.5152 75.0091 64.4783 75.2734 69.5677 74.9292C72.5956 74.7248 75.6723 75.0713 78.7158 75.3156C79.9926 75.4178 80.9479 76.244 81.3359 77.5544C81.7193 78.8471 81.5575 80.0464 80.6154 81.0592C79.5648 82.1897 78.2348 82.7894 76.7142 82.9182C72.1279 83.3092 67.5373 83.6712 62.9488 84.0465C62.8114 84.0576 62.6784 84.1021 62.5011 84.3641C63.2259 84.5352 63.9463 84.7151 64.6734 84.875C68.3508 85.679 72.0548 86.232 75.8364 86.1432C79.3409 86.061 82.6592 85.1682 85.9553 84.0643C92.6673 81.8188 99.5456 80.5129 106.645 80.4907C108.913 80.484 110.979 80.906 112.356 82.9582C113.433 84.564 113.052 85.3681 111.119 85.5791C109.113 85.7967 107.109 86.0255 104.874 86.2765C105.486 86.9583 105.952 87.4625 106.402 87.98C106.79 88.4242 107.191 88.8618 107.532 89.3415C108.516 90.7208 108.208 91.607 106.539 91.9623C104.777 92.3377 102.986 92.5709 101.217 92.9129C91.3639 94.823 81.4977 96.6798 71.6713 98.7165C69.1731 99.234 66.7105 100.158 64.3941 101.246C61.958 102.39 59.5684 102.534 56.9861 102.15C50.9102 101.244 44.8367 100.251 38.7276 99.6494C30.2667 98.8142 22.2269 100.405 14.8366 104.78C10.6184 107.276 6.42005 109.806 2.21286 112.32C1.87593 112.523 1.5257 112.709 1.00923 113Z" stroke="#232323" stroke-width="0.5" stroke-miterlimit="10"/>
</svg>
